#N canvas 0 22 450 300 10;
#X obj 100 38 unpack f f f f f f f f f f f;
#X obj 100 100 bonk-meter;
#X obj 100 -4 inlet~;
#X obj 100 17 bonk~;
#X obj 27 162 outlet;
#X obj 43 182 outlet;
#X obj 59 202 outlet;
#X obj 75 222 outlet;
#X obj 91 162 outlet;
#X obj 107 182 outlet;
#X obj 124 202 outlet;
#X obj 139 222 outlet;
#X obj 155 162 outlet;
#X obj 171 182 outlet;
#X obj 187 203 outlet;
#X obj 116 100 bonk-meter;
#X obj 132 100 bonk-meter;
#X obj 148 100 bonk-meter;
#X obj 164 100 bonk-meter;
#X obj 180 100 bonk-meter;
#X obj 196 100 bonk-meter;
#X obj 212 100 bonk-meter;
#X obj 228 100 bonk-meter;
#X obj 244 100 bonk-meter;
#X obj 260 100 bonk-meter;
#X connect 0 0 1 0;
#X connect 0 0 4 0;
#X connect 0 1 15 0;
#X connect 0 1 5 0;
#X connect 0 2 16 0;
#X connect 0 2 6 0;
#X connect 0 3 17 0;
#X connect 0 3 7 0;
#X connect 0 4 18 0;
#X connect 0 4 8 0;
#X connect 0 5 19 0;
#X connect 0 5 9 0;
#X connect 0 6 20 0;
#X connect 0 6 10 0;
#X connect 0 7 21 0;
#X connect 0 7 11 0;
#X connect 0 8 22 0;
#X connect 0 8 12 0;
#X connect 0 9 23 0;
#X connect 0 9 13 0;
#X connect 0 10 24 0;
#X connect 0 10 14 0;
#X connect 2 0 3 0;
#X connect 3 0 0 0;
#X coords 0 -1 1 1 175 45 1 100 100;
