#N canvas 112 213 855 620 10;
#X obj 86 41 inlet~;
#X obj 70 481 outlet~;
#X obj 504 101 inlet;
#X obj 562 45 loadbang;
#X msg 562 70 freq 0.8 \, mod 1.8;
#X floatatom 363 61 5 0 0 0 - - -;
#X obj 238 266 *~;
#X obj 256 242 vline~;
#X msg 257 219 1 10 \, 0 10 \$1;
#X obj 363 458 *~;
#X obj 381 433 vline~;
#X obj 563 98 u_loader e_repeater-\$1 \$0;
#X obj 70 460 c_xfade;
#X msg 109 436 \$1 10;
#X obj 503 170 u_dispatch \$0 dry;
#X obj 503 191 u_dispatch \$0 float;
#X obj 363 35 r \$0-float;
#X obj 503 128 u_dispatch \$0 feedback;
#X obj 449 79 r \$0-feedback;
#X obj 383 162 pack 200 1;
#X obj 363 485 delwrite~ \$0-del 1000;
#X obj 362 195 delread~ \$0-del;
#X msg 383 409 0 \, \$2 10 \$1;
#X obj 449 98 min 1;
#X obj 450 118 max 0;
#X obj 504 149 u_dispatch \$0 num;
#X msg 674 385 0 10;
#X obj 635 298 * 0;
#X obj 652 257 r \$0-num;
#X obj 674 365 del;
#X obj 674 343 t b f;
#X obj 635 318 moses 1;
#X obj 374 87 t f f;
#X obj 651 277 - 1;
#N canvas 172 83 586 377 LICENSE-GPL 0;
#X text 57 88 This program is free software: you can redistribute it
and/or modify it under the terms of the GNU General Public License
as published by the Free Software Foundation \, either version 3 of
the License \, or (at your option) any later version.;
#X text 58 168 This program is distributed in the hope that it will
be useful \, but WITHOUT ANY WARRANTY \; without even the implied warranty
of MERCHANTABILITY or FITNESS FOR A PARTICULAR PURPOSE. See the GNU
General Public License for more details.;
#X text 57 261 You should have received a copy of the GNU General Public
License along with this program. If not \, see <http://www.gnu.org/licenses/>.
;
#X text 61 54 Copyright (C) 2009 \, Reality Jockey Ltd.;
#X text 60 325 See the file LICENSE.txt for the full license text.
;
#X restore 642 19 pd LICENSE-GPL;
#X obj 503 211 u_dispatch \$0 freq;
#X obj 493 237 r \$0-freq;
#X msg 493 286 freq \$1;
#X obj 382 309 e_freqshift \$0-freq;
#X msg 271 154 0;
#X obj 493 262 f;
#N canvas 0 22 526 498 safety-filter 0;
#X obj 121 73 inlet~;
#X obj 121 114 hip~ 10;
#X obj 121 134 hip~ 10;
#X obj 121 154 hip~ 10;
#X obj 121 306 outlet~;
#X obj 121 94 hip~ 10;
#X obj 121 194 lop~ 20000;
#X obj 121 214 lop~ 20000;
#X obj 121 234 lop~ 20000;
#X obj 121 254 lop~ 20000;
#X connect 0 0 5 0;
#X connect 1 0 2 0;
#X connect 2 0 3 0;
#X connect 3 0 6 0;
#X connect 5 0 1 0;
#X connect 6 0 7 0;
#X connect 7 0 8 0;
#X connect 8 0 9 0;
#X connect 9 0 4 0;
#X restore 382 359 pd safety-filter;
#X obj 216 236 *~ 1;
#X obj 124 65 r \$0-dry;
#X obj 124 150 sel 0;
#X msg 124 177 0;
#X msg 158 178 1;
#X obj 108 318 pipe;
#X obj 562 293 sel 0;
#X msg 572 329 1;
#X obj 544 351 f;
#X msg 545 321 0;
#X obj 545 376 swapper;
#X obj 362 267 *~ 1;
#X obj 398 264 *~ 0;
#X obj 217 374 env~;
#X floatatom 215 395 5 0 0 0 - - -;
#X connect 0 0 12 1;
#X connect 0 0 42 0;
#X connect 2 0 17 0;
#X connect 3 0 4 0;
#X connect 4 0 17 0;
#X connect 5 0 8 0;
#X connect 5 0 21 0;
#X connect 5 0 32 0;
#X connect 6 0 12 0;
#X connect 6 0 20 0;
#X connect 6 0 55 0;
#X connect 7 0 6 1;
#X connect 8 0 7 0;
#X connect 9 0 20 0;
#X connect 10 0 9 1;
#X connect 12 0 1 0;
#X connect 13 0 12 2;
#X connect 14 0 15 0;
#X connect 15 0 35 0;
#X connect 16 0 5 0;
#X connect 16 0 47 1;
#X connect 17 0 25 0;
#X connect 18 0 23 0;
#X connect 19 0 22 0;
#X connect 21 0 12 0;
#X connect 21 0 53 0;
#X connect 21 0 54 0;
#X connect 22 0 10 0;
#X connect 23 0 24 0;
#X connect 24 0 19 1;
#X connect 25 0 14 0;
#X connect 26 0 10 0;
#X connect 27 0 31 0;
#X connect 28 0 33 0;
#X connect 29 0 26 0;
#X connect 30 0 29 0;
#X connect 30 1 29 1;
#X connect 31 1 30 0;
#X connect 32 0 27 0;
#X connect 32 1 19 0;
#X connect 33 0 27 1;
#X connect 36 0 40 0;
#X connect 37 0 38 1;
#X connect 38 0 41 0;
#X connect 39 0 40 0;
#X connect 40 0 37 0;
#X connect 40 0 48 0;
#X connect 41 0 9 0;
#X connect 42 0 6 0;
#X connect 43 0 44 0;
#X connect 43 0 39 0;
#X connect 44 0 45 0;
#X connect 44 1 46 0;
#X connect 45 0 47 0;
#X connect 46 0 13 0;
#X connect 47 0 13 0;
#X connect 48 0 51 0;
#X connect 48 1 49 0;
#X connect 49 0 50 0;
#X connect 50 0 52 0;
#X connect 50 0 54 1;
#X connect 51 0 50 0;
#X connect 52 0 53 1;
#X connect 53 0 9 0;
#X connect 54 0 38 0;
#X connect 55 0 56 0;
