#N canvas 185 169 341 534 10;
#X obj 27 75 -;
#X obj 27 145 sel 1;
#X obj 27 122 change;
#X obj 27 192 t b b b b;
#X obj 61 216 timer;
#X obj 55 294 swap 255;
#X obj 55 319 -;
#X msg 27 457 \$2 0 \$3;
#X obj 27 434 pack 0 f f;
#X obj 55 242 - 512;
#X obj 55 269 / 4.9098;
#X obj 27 52 route \$1;
#X obj 137 52 route \$1;
#X obj 222 481 outlet interval;
#X obj 27 481 outlet colour;
#X obj 119 481 outlet dmx-dist;
#X obj 27 29 inlet grain-sync;
#X obj 137 29 inlet grain-start;
#X obj 55 347 max 0;
#X obj 55 367 min 255;
#X obj 105 347 max 0;
#X obj 105 367 min 255;
#X obj 105 397 min 255;
#X obj 55 397 int;
#X obj 91 126 r latency-comp;
#X obj 27 168 del 300;
#X floatatom 146 83 5 0 0 0 - - -;
#X obj 27 99 < 0.01;
#X connect 0 0 27 0;
#X connect 1 0 25 0;
#X connect 2 0 1 0;
#X connect 3 0 8 0;
#X connect 3 1 15 0;
#X connect 3 2 4 0;
#X connect 3 3 4 1;
#X connect 4 0 9 0;
#X connect 4 0 13 0;
#X connect 5 0 6 0;
#X connect 5 1 6 1;
#X connect 6 0 18 0;
#X connect 7 0 14 0;
#X connect 8 0 7 0;
#X connect 9 0 10 0;
#X connect 10 0 5 0;
#X connect 10 0 20 0;
#X connect 11 0 0 0;
#X connect 12 0 0 1;
#X connect 12 0 26 0;
#X connect 16 0 11 0;
#X connect 17 0 12 0;
#X connect 18 0 19 0;
#X connect 19 0 23 0;
#X connect 20 0 21 0;
#X connect 21 0 22 0;
#X connect 22 0 8 2;
#X connect 23 0 8 1;
#X connect 24 0 25 1;
#X connect 25 0 3 0;
#X connect 27 0 2 0;
