#N canvas 310 372 847 441 10;
#X obj 48 80 t b b;
#X obj 48 342 del;
#X obj 82 111 u_wrandom;
#X obj 82 222 * 24;
#X obj 82 273 + 48;
#X msg 142 92 1 1 3 1;
#X obj 48 363 outlet;
#X obj 48 29 inlet;
#X text 243 221 1/4 of 1 beat;
#X text 246 260 Add 1/2 of 1 beat so it can only ever be 1/2 a beat
early or 1/2 a beat late;
#X obj 142 72 loadbang;
#X obj 181 170 m_bpm2ms;
#X obj 181 129 loadbang;
#X obj 181 150 \$1;
#X obj 194 217 / 16;
#X obj 181 195 / 32;
#X connect 0 0 1 0;
#X connect 0 1 2 0;
#X connect 1 0 6 0;
#X connect 2 0 3 0;
#X connect 3 0 4 0;
#X connect 4 0 1 1;
#X connect 5 0 2 1;
#X connect 7 0 0 0;
#X connect 10 0 5 0;
#X connect 11 0 14 0;
#X connect 11 0 15 0;
#X connect 12 0 13 0;
#X connect 13 0 11 0;
#X connect 14 0 4 1;
#X connect 15 0 3 1;
