#N canvas 328 186 734 538 10;
#X obj 141 103 < 0.2;
#X obj 243 104 > 0.8;
#X obj 243 125 change;
#X obj 141 124 change;
#X obj 141 146 sel 1;
#X obj 243 146 sel 1;
#X obj 446 94 < 0.2;
#X obj 527 94 > 0.8;
#X obj 527 115 change;
#X obj 446 115 change;
#X obj 446 137 sel 1;
#X obj 527 136 sel 1;
#X obj 343 166 r tick;
#X obj 343 208 sel 0;
#X obj 155 276 f;
#X msg 141 192 1;
#X msg 243 192 2;
#X msg 446 179 3;
#X msg 527 181 4;
#X msg 173 248 0;
#X msg 478 240 0;
#X obj 343 229 t b b;
#X obj 460 264 f;
#X obj 343 187 mod 4;
#X text 560 182 front;
#X text 476 180 back;
#X obj 141 169 t b b;
#X obj 243 169 t b b;
#X msg 275 246 0;
#X obj 173 223 t b b;
#X msg 244 246 1;
#X obj 446 158 t b b;
#X obj 527 159 t b b;
#X msg 559 239 0;
#X obj 478 213 t b b;
#X msg 526 239 1;
#X obj 155 300 == 0;
#X obj 460 286 == 0;
#X obj 279 360 +;
#X obj 279 381 == 2;
#X obj 279 402 sel 1;
#X obj 322 454 f;
#X msg 279 454 0;
#X obj 294 329 moses 1;
#X obj 294 309 moses 1;
#X msg 322 433 bang;
#X obj 141 66 spigot 1;
#X obj 446 63 spigot 1;
#X text 172 192 left;
#X text 277 194 right;
#X obj 141 16 r roll-\$1;
#X obj 446 12 r pitch-\$1;
#X obj 499 42 r cansendpitch-\$1;
#X obj 194 42 r cansendroll-\$1;
#X obj 559 266 s cansendroll-\$1;
#X obj 275 275 s cansendpitch-\$1;
#X obj 279 479 s headstate-\$1;
#X connect 0 0 3 0;
#X connect 1 0 2 0;
#X connect 2 0 5 0;
#X connect 3 0 4 0;
#X connect 4 0 26 0;
#X connect 4 1 29 0;
#X connect 5 0 27 0;
#X connect 5 1 29 0;
#X connect 6 0 9 0;
#X connect 7 0 8 0;
#X connect 8 0 11 0;
#X connect 9 0 10 0;
#X connect 10 0 31 0;
#X connect 10 1 34 0;
#X connect 11 0 32 0;
#X connect 11 1 34 0;
#X connect 12 0 23 0;
#X connect 13 0 21 0;
#X connect 14 0 36 0;
#X connect 14 0 43 0;
#X connect 15 0 14 1;
#X connect 16 0 14 1;
#X connect 17 0 22 1;
#X connect 18 0 22 1;
#X connect 19 0 14 1;
#X connect 20 0 22 1;
#X connect 21 0 14 0;
#X connect 21 1 22 0;
#X connect 22 0 37 0;
#X connect 22 0 44 0;
#X connect 23 0 13 0;
#X connect 26 0 15 0;
#X connect 26 1 28 0;
#X connect 27 0 16 0;
#X connect 27 1 28 0;
#X connect 28 0 55 0;
#X connect 29 0 19 0;
#X connect 29 1 30 0;
#X connect 30 0 55 0;
#X connect 31 0 17 0;
#X connect 31 1 33 0;
#X connect 32 0 18 0;
#X connect 32 1 33 0;
#X connect 33 0 54 0;
#X connect 34 0 20 0;
#X connect 34 1 35 0;
#X connect 35 0 54 0;
#X connect 36 0 38 0;
#X connect 37 0 38 1;
#X connect 38 0 39 0;
#X connect 39 0 40 0;
#X connect 40 0 42 0;
#X connect 40 1 45 0;
#X connect 41 0 56 0;
#X connect 42 0 56 0;
#X connect 43 1 41 1;
#X connect 44 1 41 1;
#X connect 45 0 41 0;
#X connect 46 0 0 0;
#X connect 46 0 1 0;
#X connect 47 0 6 0;
#X connect 47 0 7 0;
#X connect 50 0 46 0;
#X connect 51 0 47 0;
#X connect 52 0 47 1;
#X connect 53 0 46 1;
