#N canvas 190 366 450 300 10;
#X obj 143 107 inlet;
#X obj 143 135 pack \$1 \$2 \$3;
#X msg 143 161 \$1 \$3;
#X msg 213 161 \$2 \$3;
#X obj 143 185 s x-line;
#X obj 213 184 s y-line;
#X connect 0 0 1 0;
#X connect 1 0 2 0;
#X connect 1 0 3 0;
#X connect 2 0 4 0;
#X connect 3 0 5 0;
