#N canvas 0 22 615 373 10;
#X obj 103 272 f;
#X obj 24 43 inlet accelerometer;
#X obj 103 313 outlet midi-note;
#X obj 24 64 t f f;
#X obj 121 139 * 12;
#X obj 103 293 +;
#X text 71 83 Make the accelerometer data wrap around the number of
notes in the scale.;
#X text 167 118 Make numbers above or below the first octave of the
scale change the octave accordingly.;
#X obj 24 85 mod \$1;
#X obj 121 118 div \$1;
#X obj 24 195 \$2;
#X obj 40 215 \$3;
#X obj 56 195 \$4;
#X obj 72 215 \$5;
#X obj 89 195 \$6;
#X obj 105 215 \$7;
#X obj 121 195 \$8;
#X obj 137 215 \$9;
#X obj 154 195 \$10;
#X obj 171 215 \$11;
#X obj 186 195 \$12;
#X obj 204 215 \$13;
#X text 239 174 Notes of scale. Passed as arguments.;
#X text 199 7 Arg 1: number of notes in scale;
#X obj 24 173 sel 0 1 2 3 4 5 6 7 8 9 10;
#X text 199 25 Args 2-13: notes;
#X text 4 357 YL@RM;
#X connect 0 0 5 0;
#X connect 1 0 3 0;
#X connect 3 0 8 0;
#X connect 3 1 9 0;
#X connect 4 0 5 1;
#X connect 5 0 2 0;
#X connect 8 0 24 0;
#X connect 9 0 4 0;
#X connect 10 0 0 0;
#X connect 11 0 0 0;
#X connect 12 0 0 0;
#X connect 13 0 0 0;
#X connect 14 0 0 0;
#X connect 15 0 0 0;
#X connect 16 0 0 0;
#X connect 17 0 0 0;
#X connect 18 0 0 0;
#X connect 19 0 0 0;
#X connect 20 0 0 0;
#X connect 21 0 0 0;
#X connect 24 0 10 0;
#X connect 24 1 11 0;
#X connect 24 2 12 0;
#X connect 24 3 13 0;
#X connect 24 4 14 0;
#X connect 24 5 15 0;
#X connect 24 6 16 0;
#X connect 24 7 17 0;
#X connect 24 8 18 0;
#X connect 24 9 19 0;
#X connect 24 10 20 0;
#X connect 24 11 21 0;
