#N canvas 0 22 450 300 10;
#X obj 134 39 inlet~;
#X obj 134 235 outlet~;
#X obj 134 174 e_reslop;
#X obj 225 55 inlet;
#X obj 134 204 *~ 3;
#X connect 0 0 2 0;
#X connect 2 0 4 0;
#X connect 3 0 2 1;
#X connect 4 0 1 0;
