#N canvas 262 108 615 373 10;
#X declare -path rj;
#X declare -path utils;
#X declare -path abs;
#X declare -path DMX;
#X obj 155 279 *~;
#X obj 258 279 *~;
#X obj 155 309 throw~ L;
#X obj 258 309 throw~ R;
#X obj 284 64 vsl 15 128 0 1 0 0 empty empty empty 0 -9 0 10 -262144
-1 -1 0 1;
#X obj 155 249 catch~ \$0-L;
#X obj 258 249 catch~ \$0-R;
#X obj 155 150 \$1 \$0;
#X obj 332 206 line~;
#X msg 332 181 1 4000;
#X obj 332 53 r song;
#X obj 332 97 sel \$1;
#X obj 332 76 symbol;
#X msg 365 148 0 2000;
#X obj 332 124 del 2000;
#X msg 438 155 1;
#X msg 476 156 0;
#X obj 476 210 switch~;
#X obj 438 181 t b f;
#X obj 438 242 s \$0-reset-timebase;
#X obj 476 133 del 3000;
#X msg 476 112 bang;
#X floatatom 516 219 5 0 0 0 - - -;
#X obj 554 102 loadbang;
#X obj 446 36 r ctrl-vol;
#X obj 443 64 sel 0;
#X connect 0 0 2 0;
#X connect 1 0 3 0;
#X connect 4 0 8 0;
#X connect 5 0 0 0;
#X connect 6 0 1 0;
#X connect 8 0 1 1;
#X connect 8 0 0 1;
#X connect 9 0 8 0;
#X connect 10 0 12 0;
#X connect 11 0 14 0;
#X connect 11 0 15 0;
#X connect 11 1 13 0;
#X connect 11 1 21 0;
#X connect 12 0 11 0;
#X connect 13 0 8 0;
#X connect 14 0 9 0;
#X connect 15 0 18 0;
#X connect 16 0 17 0;
#X connect 18 0 19 0;
#X connect 18 1 17 0;
#X connect 18 1 22 0;
#X connect 20 0 16 0;
#X connect 21 0 20 0;
#X connect 23 0 16 0;
#X connect 24 0 25 0;
#X connect 25 0 16 0;
