#N canvas 0 22 450 300 10;
#X obj 175 126 inlet;
#X obj 175 169 -;
#X obj 175 189 outlet;
#X obj 175 147 swap \$1;
#X obj 214 55 loadbang;
#X obj 214 78 \$1;
#X obj 214 100 sel 0;
#X msg 214 123 1;
#X connect 0 0 3 0;
#X connect 1 0 2 0;
#X connect 3 0 1 0;
#X connect 3 1 1 1;
#X connect 4 0 5 0;
#X connect 5 0 6 0;
#X connect 6 0 7 0;
#X connect 7 0 3 1;
