#N canvas 466 44 751 249 10;
#X obj 92 57 t b b b;
#X obj 339 33 inlet time;
#X obj 92 33 inlet bang;
#X obj 92 208 s red;
#X obj 182 208 s green;
#X obj 282 208 s blue;
#X obj 92 160 pack \$1 \$4;
#X obj 182 160 pack \$2 \$4;
#X obj 282 160 pack \$3 \$4;
#X text 402 100 Args 1 \, 2 and 3 are RGB of colour to flash.;
#X obj 282 127 * 1;
#X obj 182 127 * 1;
#X obj 92 127 * 1;
#X obj 92 98 \$1;
#X obj 182 98 \$2;
#X obj 282 101 \$3;
#X obj 221 33 inlet brightness;
#X text 402 120 Arg 4 and 3rd inlet is time.;
#X text 402 140 4th inlet is time.;
#X msg 92 184 0 \, \$1 \$2;
#X msg 182 184 0 \, \$1 \$2;
#X msg 282 184 0 \, \$1 \$2;
#X connect 0 0 13 0;
#X connect 0 1 14 0;
#X connect 0 2 15 0;
#X connect 1 0 6 1;
#X connect 1 0 7 1;
#X connect 1 0 8 1;
#X connect 2 0 0 0;
#X connect 6 0 19 0;
#X connect 7 0 20 0;
#X connect 8 0 21 0;
#X connect 10 0 8 0;
#X connect 11 0 7 0;
#X connect 12 0 6 0;
#X connect 13 0 12 0;
#X connect 14 0 11 0;
#X connect 15 0 10 0;
#X connect 16 0 12 1;
#X connect 16 0 11 1;
#X connect 16 0 10 1;
#X connect 19 0 3 0;
#X connect 20 0 4 0;
#X connect 21 0 5 0;
