#N canvas 466 44 751 249 10;
#X obj 339 33 inlet time;
#X obj 92 208 s red;
#X obj 182 208 s green;
#X obj 282 208 s blue;
#X msg 92 184 \$1 \, 0 \$2;
#X msg 182 184 \$1 \, 0 \$2;
#X msg 282 184 \$1 \, 0 \$2;
#X obj 282 127 * 1;
#X obj 182 127 * 1;
#X obj 92 127 * 1;
#X obj 221 33 inlet brightness;
#X obj 92 57 unpack f f f;
#X obj 92 33 inlet colour;
#X obj 92 160 pack f \$1;
#X obj 182 160 pack f \$1;
#X obj 282 160 pack f \$1;
#X connect 0 0 13 1;
#X connect 0 0 14 1;
#X connect 0 0 15 1;
#X connect 4 0 1 0;
#X connect 5 0 2 0;
#X connect 6 0 3 0;
#X connect 7 0 15 0;
#X connect 8 0 14 0;
#X connect 9 0 13 0;
#X connect 10 0 9 1;
#X connect 10 0 8 1;
#X connect 10 0 7 1;
#X connect 11 0 9 0;
#X connect 11 1 8 0;
#X connect 11 2 7 0;
#X connect 12 0 11 0;
#X connect 13 0 4 0;
#X connect 14 0 5 0;
#X connect 15 0 6 0;
