#N canvas 466 44 751 249 10;
#X obj 92 57 t b b b;
#X obj 399 33 inlet time;
#X obj 92 33 inlet bang;
#X obj 92 160 pack \$1 \$4;
#X obj 212 160 pack \$2 \$4;
#X obj 342 160 pack \$3 \$4;
#X text 432 100 Args 1 \, 2 and 3 are RGB of colour to flash.;
#X msg 92 184 \$1 \, 0 \$2;
#X msg 212 184 \$1 \, 0 \$2;
#X msg 342 184 \$1 \, 0 \$2;
#X obj 342 127 * 1;
#X obj 212 127 * 1;
#X obj 92 127 * 1;
#X obj 92 98 \$1;
#X obj 212 98 \$2;
#X obj 342 101 \$3;
#X obj 251 33 inlet brightness;
#X text 432 120 Arg 4 and 3rd inlet is time.;
#X obj 92 208 s red-solo;
#X obj 212 208 s green-solo;
#X obj 342 208 s blue-solo;
#X connect 0 0 13 0;
#X connect 0 1 14 0;
#X connect 0 2 15 0;
#X connect 1 0 3 1;
#X connect 1 0 4 1;
#X connect 1 0 5 1;
#X connect 2 0 0 0;
#X connect 3 0 7 0;
#X connect 4 0 8 0;
#X connect 5 0 9 0;
#X connect 7 0 18 0;
#X connect 8 0 19 0;
#X connect 9 0 20 0;
#X connect 10 0 5 0;
#X connect 11 0 4 0;
#X connect 12 0 3 0;
#X connect 13 0 12 0;
#X connect 14 0 11 0;
#X connect 15 0 10 0;
#X connect 16 0 12 1;
#X connect 16 0 11 1;
#X connect 16 0 10 1;
