#N canvas 584 123 696 248 10;
#X obj 314 28 inlet time;
#X msg 49 189 \$1 \, \$2 \$3;
#X msg 139 189 \$1 \, \$2 \$3;
#X msg 232 189 \$1 \, \$2 \$3;
#X obj 49 214 s red;
#X obj 139 214 s green;
#X obj 232 213 s blue;
#X obj 49 82 unpack f f f;
#X obj 49 28 inlet go-to-colour;
#X obj 172 28 inlet return-to-colour;
#X obj 172 82 unpack f f f;
#X obj 49 165 pack \$1 \$4 \$7;
#X obj 139 165 pack \$2 \$5 \$7;
#X obj 232 165 pack \$3 \$6 \$7;
#X text 359 95 Args 1 \, 2 and 3 are RGB of colour to flash.;
#X text 359 115 Args 4 \, 5 and 6 are RGB of colour to go back to.
;
#X obj 49 116 * 1;
#X obj 89 116 * 1;
#X obj 129 116 * 1;
#X obj 172 116 * 1;
#X obj 212 116 * 1;
#X obj 252 116 * 1;
#X obj 384 28 inlet brightness;
#X text 359 135 Arg 7 and 3rd inlet is time.;
#X obj 49 55 t a b;
#X connect 0 0 11 2;
#X connect 0 0 12 2;
#X connect 0 0 13 2;
#X connect 1 0 4 0;
#X connect 2 0 5 0;
#X connect 3 0 6 0;
#X connect 7 0 16 0;
#X connect 7 1 17 0;
#X connect 7 2 18 0;
#X connect 8 0 24 0;
#X connect 9 0 10 0;
#X connect 10 0 19 0;
#X connect 10 1 20 0;
#X connect 10 2 21 0;
#X connect 11 0 1 0;
#X connect 12 0 2 0;
#X connect 13 0 3 0;
#X connect 16 0 11 0;
#X connect 17 0 12 0;
#X connect 18 0 13 0;
#X connect 19 0 11 1;
#X connect 20 0 12 1;
#X connect 21 0 13 1;
#X connect 22 0 21 1;
#X connect 22 0 20 1;
#X connect 22 0 19 1;
#X connect 22 0 18 1;
#X connect 22 0 17 1;
#X connect 22 0 16 1;
#X connect 24 0 7 0;
#X connect 24 1 10 0;
