#N canvas 84 554 678 290 10;
#X obj 92 87 t b b b;
#X obj 339 73 inlet time;
#X obj 92 13 inlet bang;
#X obj 92 248 s red;
#X obj 182 248 s green;
#X obj 282 248 s blue;
#X obj 92 200 pack \$1 \$4;
#X obj 182 200 pack \$2 \$4;
#X obj 282 200 pack \$3 \$4;
#X text 402 140 Args 1 \, 2 and 3 are RGB of colour to flash.;
#X obj 282 167 * 1;
#X obj 182 167 * 1;
#X obj 92 167 * 1;
#X obj 92 118 \$1;
#X obj 182 118 \$2;
#X obj 282 121 \$3;
#X obj 221 73 inlet brightness;
#X text 402 160 Arg 4 and 3rd inlet is time.;
#X text 402 180 4th inlet is time.;
#X msg 92 224 \$1 \, 255 \$2;
#X msg 182 224 \$1 \, 255 \$2;
#X msg 282 224 \$1 \, 255 \$2;
#X obj 92 38 route bang list;
#X obj 135 62 unpack f f f;
#X floatatom 131 132 5 0 0 0 - - -;
#X obj 339 100 max 10;
#X connect 0 0 13 0;
#X connect 0 1 14 0;
#X connect 0 2 15 0;
#X connect 1 0 25 0;
#X connect 2 0 22 0;
#X connect 6 0 19 0;
#X connect 7 0 20 0;
#X connect 8 0 21 0;
#X connect 10 0 8 0;
#X connect 11 0 7 0;
#X connect 12 0 6 0;
#X connect 13 0 12 0;
#X connect 14 0 11 0;
#X connect 15 0 10 0;
#X connect 16 0 12 1;
#X connect 16 0 11 1;
#X connect 16 0 10 1;
#X connect 19 0 3 0;
#X connect 20 0 4 0;
#X connect 21 0 5 0;
#X connect 22 0 0 0;
#X connect 22 1 23 0;
#X connect 23 0 12 0;
#X connect 23 1 11 0;
#X connect 23 1 24 0;
#X connect 23 2 10 0;
#X connect 25 0 8 1;
#X connect 25 0 7 1;
#X connect 25 0 6 1;
