#N canvas 726 108 714 327 10;
#X obj 92 107 t b b b;
#X obj 509 83 inlet time;
#X obj 92 33 inlet bang;
#X obj 92 210 pack \$1 \$4;
#X obj 182 210 pack \$2 \$4;
#X obj 282 210 pack \$3 \$4;
#X text 402 150 Args 1 \, 2 and 3 are RGB of colour to flash.;
#X msg 92 234 \$1 \, 0 \$2;
#X msg 182 234 \$1 \, 0 \$2;
#X msg 282 234 \$1 \, 0 \$2;
#X obj 282 177 * 1;
#X obj 182 177 * 1;
#X obj 92 177 * 1;
#X obj 92 148 \$1;
#X obj 182 148 \$2;
#X obj 282 151 \$3;
#X obj 391 83 inlet brightness;
#X text 402 170 Arg 4 and 3rd inlet is time.;
#X obj 612 32 inlet on;
#X obj 92 64 spigot 0;
#X obj 92 258 s red3;
#X obj 182 258 s green3;
#X obj 282 258 s blue3;
#X obj 183 83 inlet;
#X obj 233 79 inlet;
#X obj 285 79 inlet;
#X connect 0 0 13 0;
#X connect 0 1 14 0;
#X connect 0 2 15 0;
#X connect 1 0 3 1;
#X connect 1 0 4 1;
#X connect 1 0 5 1;
#X connect 2 0 19 0;
#X connect 3 0 7 0;
#X connect 4 0 8 0;
#X connect 5 0 9 0;
#X connect 7 0 20 0;
#X connect 8 0 21 0;
#X connect 9 0 22 0;
#X connect 10 0 5 0;
#X connect 11 0 4 0;
#X connect 12 0 3 0;
#X connect 13 0 12 0;
#X connect 14 0 11 0;
#X connect 15 0 10 0;
#X connect 16 0 12 1;
#X connect 16 0 11 1;
#X connect 16 0 10 1;
#X connect 18 0 19 1;
#X connect 19 0 0 0;
#X connect 23 0 13 1;
#X connect 24 0 14 1;
#X connect 25 0 15 1;
