#N canvas 466 44 759 458 10;
#X obj 92 186 line;
#X obj 182 186 line;
#X obj 275 186 line;
#X obj 92 57 t b b b;
#X obj 357 33 inlet time;
#X obj 92 33 inlet bang;
#X msg 92 164 \$1 \, \$2 \$3;
#X msg 182 164 \$1 \, \$2 \$3;
#X msg 275 164 \$1 \, \$2 \$3;
#X obj 92 211 int;
#X obj 182 211 int;
#X obj 275 211 int;
#X text 402 100 Args 2 \, 3 and 4 are RGB of colour to flash.;
#X text 402 120 Args 5 \, 6 and 7 are RGB of colour to go back to.
;
#X text 402 140 Arg 8 and 2nd inlet is time.;
#X obj 92 140 pack \$2 \$5 \$8;
#X obj 182 140 pack \$3 \$6 \$8;
#X obj 275 140 pack \$4 \$7 \$8;
#X text 402 80 Arg 1 is lamp ID.;
#X text 402 160 Arg 9 is the channel;
#X obj 92 239 s \$1-\$9-R;
#X obj 182 239 s \$1-\$9-G;
#X obj 275 238 s \$1-\$9-B;
#X connect 0 0 9 0;
#X connect 1 0 10 0;
#X connect 2 0 11 0;
#X connect 3 0 15 0;
#X connect 3 1 16 0;
#X connect 3 2 17 0;
#X connect 4 0 15 2;
#X connect 4 0 16 2;
#X connect 4 0 17 2;
#X connect 5 0 3 0;
#X connect 6 0 0 0;
#X connect 7 0 1 0;
#X connect 8 0 2 0;
#X connect 9 0 20 0;
#X connect 10 0 21 0;
#X connect 11 0 22 0;
#X connect 15 0 6 0;
#X connect 16 0 7 0;
#X connect 17 0 8 0;
