#N canvas 466 44 751 249 10;
#X obj 339 33 inlet time;
#X msg 92 184 \$1 \, 0 \$2;
#X msg 182 184 \$1 \, 0 \$2;
#X msg 282 184 \$1 \, 0 \$2;
#X obj 282 127 * 1;
#X obj 182 127 * 1;
#X obj 92 127 * 1;
#X obj 221 33 inlet brightness;
#X obj 92 57 unpack f f f;
#X obj 92 33 inlet colour;
#X obj 92 160 pack f \$1;
#X obj 182 160 pack f \$1;
#X obj 282 160 pack f \$1;
#X obj 92 208 s red2;
#X obj 182 208 s green2;
#X obj 282 208 s blue2;
#X connect 0 0 10 1;
#X connect 0 0 11 1;
#X connect 0 0 12 1;
#X connect 1 0 13 0;
#X connect 2 0 14 0;
#X connect 3 0 15 0;
#X connect 4 0 12 0;
#X connect 5 0 11 0;
#X connect 6 0 10 0;
#X connect 7 0 6 1;
#X connect 7 0 5 1;
#X connect 7 0 4 1;
#X connect 8 0 6 0;
#X connect 8 1 5 0;
#X connect 8 2 4 0;
#X connect 9 0 8 0;
#X connect 10 0 1 0;
#X connect 11 0 2 0;
#X connect 12 0 3 0;
