#N canvas 582 141 889 603 10;
#X msg 687 500 close;
#X obj 43 115 r red;
#X obj 296 115 r blue;
#X obj 83 425 line;
#X obj 228 425 line;
#X obj 336 425 line;
#X obj 63 475 int;
#X obj 188 475 int;
#X obj 312 475 int;
#X obj 168 115 r green;
#X obj 43 425 line;
#X obj 168 425 line;
#X obj 296 425 line;
#X obj 43 447 * 1;
#X obj 168 447 * 1;
#X obj 296 447 * 1;
#X msg 731 500 open 2;
#X obj 369 191 swap 1;
#X obj 369 215 -;
#X obj 43 246 spigot;
#X obj 168 246 spigot;
#X obj 296 246 spigot;
#X obj 369 167 r 4-down;
#X obj 70 346 r red2;
#X obj 178 375 r green2;
#X obj 306 375 r blue2;
#X obj 381 140 r 3-down;
#X msg 573 461 devices;
#X msg 63 500 print 2c\$1w;
#X msg 188 500 print 3c\$1w;
#X msg 343 500 print 4c\$1w;
#X msg 434 500 print 1c128w;
#X msg 613 500 print 6c0w;
#X msg 524 500 print 5c\$1w;
#X obj 642 473 loadbang;
#X msg 658 417 0;
#X obj 658 392 loadbang;
#X floatatom 372 241 5 0 0 0 - - -;
#X floatatom 68 171 5 0 0 0 - - -;
#X floatatom 180 143 5 0 0 0 - - -;
#X floatatom 313 144 5 0 0 0 - - -;
#X floatatom 55 270 5 0 0 0 - - -;
#X obj 63 516 flatspace/compor1t 2 9600;
#X connect 0 0 42 0;
#X connect 1 0 38 0;
#X connect 1 0 19 0;
#X connect 2 0 21 0;
#X connect 2 0 40 0;
#X connect 3 0 6 0;
#X connect 4 0 7 0;
#X connect 5 0 8 0;
#X connect 6 0 28 0;
#X connect 7 0 29 0;
#X connect 8 0 30 0;
#X connect 9 0 20 0;
#X connect 9 0 39 0;
#X connect 10 0 13 0;
#X connect 11 0 14 0;
#X connect 12 0 15 0;
#X connect 13 0 6 0;
#X connect 14 0 7 0;
#X connect 15 0 8 0;
#X connect 16 0 42 0;
#X connect 17 0 18 0;
#X connect 17 1 18 1;
#X connect 18 0 19 1;
#X connect 18 0 20 1;
#X connect 18 0 21 1;
#X connect 18 0 37 0;
#X connect 19 0 41 0;
#X connect 19 0 10 0;
#X connect 20 0 11 0;
#X connect 21 0 12 0;
#X connect 22 0 17 0;
#X connect 23 0 10 0;
#X connect 24 0 11 0;
#X connect 25 0 12 0;
#X connect 26 0 17 0;
#X connect 27 0 42 0;
#X connect 28 0 42 0;
#X connect 29 0 42 0;
#X connect 30 0 42 0;
#X connect 31 0 42 0;
#X connect 32 0 42 0;
#X connect 33 0 42 0;
#X connect 34 0 32 0;
#X connect 35 0 33 0;
#X connect 36 0 35 0;
