#N canvas 220 33 759 458 10;
#X obj 92 186 line;
#X obj 182 186 line;
#X obj 275 186 line;
#X obj 92 57 t b b b;
#X obj 357 33 inlet time;
#X obj 92 33 inlet bang;
#X obj 92 140 pack \$1 \$4 \$7;
#X obj 182 140 pack \$2 \$5 \$7;
#X obj 275 140 pack \$3 \$6 \$7;
#X msg 92 164 \$1 \, \$2 \$3;
#X msg 182 164 \$1 \, \$2 \$3;
#X msg 275 164 \$1 \, \$2 \$3;
#X text 402 80 Args 1 \, 2 and 3 are RGB of colour to flash.;
#X text 402 100 Args 4 \, 5 and 6 are RGB of colour to go back to.
;
#X text 402 120 Arg 7 and 2nd inlet is time.;
#X obj 92 211 int;
#X obj 182 211 int;
#X obj 275 211 int;
#X obj 47 429 s comport;
#X obj 348 197 \$1;
#X obj 348 176 loadbang;
#X obj 348 219 sel 1 8;
#X msg 47 289 1;
#X msg 137 290 2;
#X msg 230 290 3;
#X obj 47 312 pack f f;
#X obj 137 313 pack f f;
#X obj 230 313 pack f f;
#X msg 47 336 print 00\$1c\$2w;
#X msg 137 336 print 00\$1c\$2w;
#X msg 230 336 print 00\$1c\$2w;
#X msg 77 289 8;
#X msg 167 290 9;
#X msg 260 290 10;
#X obj 348 241 t b b b b;
#X obj 368 263 t b b b b;
#X msg 399 333 print 004c255w;
#X msg 419 355 print 011c255w;
#X obj 424 238 print [DMX-colour-flash];
#X msg 424 217 bad lamp ID;
#X connect 0 0 15 0;
#X connect 1 0 16 0;
#X connect 2 0 17 0;
#X connect 3 0 6 0;
#X connect 3 1 7 0;
#X connect 3 2 8 0;
#X connect 4 0 8 2;
#X connect 4 0 7 2;
#X connect 4 0 6 2;
#X connect 5 0 3 0;
#X connect 6 0 9 0;
#X connect 7 0 10 0;
#X connect 8 0 11 0;
#X connect 9 0 0 0;
#X connect 10 0 1 0;
#X connect 11 0 2 0;
#X connect 15 0 25 1;
#X connect 16 0 26 1;
#X connect 17 0 27 1;
#X connect 19 0 21 0;
#X connect 20 0 19 0;
#X connect 21 0 34 0;
#X connect 21 1 35 0;
#X connect 21 2 39 0;
#X connect 22 0 25 0;
#X connect 23 0 26 0;
#X connect 24 0 27 0;
#X connect 25 0 28 0;
#X connect 26 0 29 0;
#X connect 27 0 30 0;
#X connect 28 0 18 0;
#X connect 29 0 18 0;
#X connect 30 0 18 0;
#X connect 31 0 25 0;
#X connect 32 0 26 0;
#X connect 33 0 27 0;
#X connect 34 0 22 0;
#X connect 34 1 23 0;
#X connect 34 2 24 0;
#X connect 34 3 36 0;
#X connect 35 0 31 0;
#X connect 35 1 32 0;
#X connect 35 2 33 0;
#X connect 35 3 37 0;
#X connect 36 0 18 0;
#X connect 37 0 18 0;
#X connect 39 0 38 0;
