#N canvas 220 33 724 369 10;
#X obj 92 186 line;
#X obj 182 186 line;
#X obj 275 186 line;
#X obj 92 57 t b b b;
#X obj 357 33 inlet time;
#X obj 92 33 inlet bang;
#X obj 92 140 pack \$1 \$4 \$7;
#X obj 182 140 pack \$2 \$5 \$7;
#X obj 275 140 pack \$3 \$6 \$7;
#X msg 92 164 \$1 \, \$2 \$3;
#X msg 182 164 \$1 \, \$2 \$3;
#X msg 275 164 \$1 \, \$2 \$3;
#X text 402 80 Args 1 \, 2 and 3 are RGB of colour to flash.;
#X text 402 100 Args 4 \, 5 and 6 are RGB of colour to go back to.
;
#X text 402 120 Arg 7 and 2nd inlet is time.;
#X msg 92 236 print 001c\$1w;
#X msg 182 236 print 002c\$1w;
#X msg 275 236 print 003c\$1w;
#X msg 151 310 print 004c255w;
#X obj 225 290 loadbang;
#X obj 92 211 int;
#X obj 182 211 int;
#X obj 275 211 int;
#X obj 92 329 s comport;
#X connect 0 0 20 0;
#X connect 1 0 21 0;
#X connect 2 0 22 0;
#X connect 3 0 6 0;
#X connect 3 1 7 0;
#X connect 3 2 8 0;
#X connect 4 0 8 2;
#X connect 4 0 7 2;
#X connect 4 0 6 2;
#X connect 5 0 3 0;
#X connect 6 0 9 0;
#X connect 7 0 10 0;
#X connect 8 0 11 0;
#X connect 9 0 0 0;
#X connect 10 0 1 0;
#X connect 11 0 2 0;
#X connect 15 0 23 0;
#X connect 16 0 23 0;
#X connect 17 0 23 0;
#X connect 18 0 23 0;
#X connect 19 0 18 0;
#X connect 20 0 15 0;
#X connect 21 0 16 0;
#X connect 22 0 17 0;
