#N canvas 0 22 450 300 10;
#N canvas 598 57 526 576 DMX-beat1 0;
#X obj 42 85 r DMX-kick1;
#X obj 42 165 r DMX-snare1;
#X obj 124 55 r level-34;
#X obj 247 53 r rev-level-34;
#X obj 247 76 * 1270;
#X obj 247 97 + 200;
#X obj 42 255 r DMX-snare2;
#X obj 36 345 r DMX-clap;
#X obj 42 106 DMX-colour-flash 255 0 0 400;
#X obj 42 187 DMX-colour-flash 0 0 255 400;
#X obj 42 277 DMX-colour-flash 0 255 0 400;
#X obj 36 367 DMX-colour-flash 255 255 0 400;
#X connect 0 0 8 0;
#X connect 1 0 9 0;
#X connect 2 0 8 1;
#X connect 2 0 9 1;
#X connect 2 0 10 1;
#X connect 2 0 11 1;
#X connect 3 0 4 0;
#X connect 4 0 5 0;
#X connect 5 0 8 2;
#X connect 5 0 9 2;
#X connect 5 0 10 2;
#X connect 5 0 11 2;
#X connect 6 0 10 0;
#X connect 7 0 11 0;
#X restore 40 19 pd DMX-beat1;
#N canvas 317 112 721 443 DMX-synth 0;
#X obj 101 28 r tick;
#X obj 101 84 mod 32;
#X obj 94 342 s red;
#X obj 184 342 s green;
#X obj 284 342 s blue;
#X msg 94 315 \$1 200;
#X msg 184 314 \$1 200;
#X msg 284 315 \$1 200;
#X obj 101 116 sel 0 2 6 8 10 14 16 18 22 24 26 30;
#X obj 327 15 r accel;
#X obj 327 38 unpack f f f;
#X obj 396 62 > 0.8;
#X obj 101 55 spigot;
#X obj 94 285 *;
#X obj 184 287 *;
#X obj 284 288 *;
#X obj 406 208 f;
#X obj 94 213 unpack f f f;
#X msg 152 167 128 255 0;
#X msg 91 169 255 128 0;
#X msg 221 168 128 128 128;
#X msg 295 167 255 255 0;
#X obj 406 137 r synth-filter;
#X obj 406 160 swap 1;
#X obj 406 183 -;
#X connect 0 0 12 0;
#X connect 1 0 8 0;
#X connect 5 0 2 0;
#X connect 6 0 3 0;
#X connect 7 0 4 0;
#X connect 8 2 18 0;
#X connect 8 5 20 0;
#X connect 8 8 21 0;
#X connect 8 11 19 0;
#X connect 9 0 10 0;
#X connect 10 2 11 0;
#X connect 11 0 12 1;
#X connect 12 0 1 0;
#X connect 13 0 5 0;
#X connect 14 0 6 0;
#X connect 15 0 7 0;
#X connect 16 0 15 1;
#X connect 16 0 14 1;
#X connect 16 0 13 1;
#X connect 17 0 13 0;
#X connect 17 1 14 0;
#X connect 17 2 15 0;
#X connect 18 0 17 0;
#X connect 19 0 17 0;
#X connect 20 0 17 0;
#X connect 21 0 17 0;
#X connect 22 0 23 0;
#X connect 23 0 24 0;
#X connect 23 1 24 1;
#X connect 24 0 16 0;
#X restore 40 42 pd DMX-synth;
#N canvas 253 301 743 599 DMX-stutter 0;
#X obj 125 15 r 2-down;
#X obj 69 48 spigot;
#X obj 69 291 mod;
#X obj 144 48 r stutter-speed;
#X obj 69 317 sel 0;
#X obj 69 16 r tick2;
#X msg 144 249 8;
#X msg 174 249 4;
#X msg 204 249 2;
#X msg 234 249 1;
#X msg 359 248 50;
#X msg 267 249 300;
#X msg 297 249 150;
#X msg 327 249 100;
#X obj 144 102 sel 0 1 2 3 4;
#X obj 144 146 t b b b;
#X obj 457 364 random 128;
#X obj 69 404 t b b b;
#X obj 69 555 s red;
#X obj 159 555 s green;
#X obj 259 555 s blue;
#X msg 69 531 \$1 \, 0 \$2;
#X msg 159 531 \$1 \, 0 \$2;
#X msg 259 531 \$1 \, 0 \$2;
#X obj 259 474 * 1;
#X obj 159 474 * 1;
#X obj 69 474 * 1;
#X obj 69 445 f;
#X obj 159 445 f;
#X obj 259 446 f;
#X obj 69 507 pack f f;
#X obj 159 507 pack f f;
#X obj 259 507 pack f f;
#X obj 527 364 random 128;
#X obj 597 364 random 128;
#X obj 457 337 t b b b;
#X obj 194 146 t b b b;
#X obj 244 146 t b b b;
#X obj 294 146 t b b b;
#X obj 316 380 f;
#X obj 144 77 change;
#X obj 457 389 + 0;
#X obj 527 389 + 0;
#X obj 597 389 + 0;
#X obj 198 380 f;
#X connect 0 0 1 1;
#X connect 1 0 2 0;
#X connect 2 0 4 0;
#X connect 3 0 40 0;
#X connect 4 0 17 0;
#X connect 5 0 1 0;
#X connect 6 0 2 1;
#X connect 7 0 2 1;
#X connect 8 0 2 1;
#X connect 9 0 2 1;
#X connect 10 0 39 0;
#X connect 11 0 39 0;
#X connect 12 0 39 0;
#X connect 13 0 39 0;
#X connect 14 0 15 0;
#X connect 14 1 36 0;
#X connect 14 2 37 0;
#X connect 14 3 38 0;
#X connect 15 0 6 0;
#X connect 15 1 11 0;
#X connect 15 2 35 0;
#X connect 16 0 41 0;
#X connect 17 0 27 0;
#X connect 17 1 28 0;
#X connect 17 2 29 0;
#X connect 21 0 18 0;
#X connect 22 0 19 0;
#X connect 23 0 20 0;
#X connect 24 0 32 0;
#X connect 25 0 31 0;
#X connect 26 0 30 0;
#X connect 27 0 26 0;
#X connect 28 0 25 0;
#X connect 29 0 24 0;
#X connect 30 0 21 0;
#X connect 31 0 22 0;
#X connect 32 0 23 0;
#X connect 33 0 42 0;
#X connect 34 0 43 0;
#X connect 35 0 16 0;
#X connect 35 1 33 0;
#X connect 35 2 34 0;
#X connect 36 0 7 0;
#X connect 36 1 12 0;
#X connect 36 2 35 0;
#X connect 37 0 8 0;
#X connect 37 1 13 0;
#X connect 37 2 35 0;
#X connect 38 0 9 0;
#X connect 38 1 10 0;
#X connect 38 2 35 0;
#X connect 39 0 30 1;
#X connect 39 0 31 1;
#X connect 39 0 32 1;
#X connect 40 0 14 0;
#X connect 41 0 27 1;
#X connect 42 0 28 1;
#X connect 43 0 29 1;
#X connect 44 0 26 1;
#X connect 44 0 25 1;
#X connect 44 0 24 1;
#X restore 40 65 pd DMX-stutter;
#N canvas 0 22 763 489 DMX-intro 1;
#X obj 100 30 r tick;
#X obj 100 62 spigot 1;
#X obj 100 108 mod 64;
#X obj 100 171 mod 2;
#X obj 101 198 sel 0;
#X obj 163 141 moses 33;
#X obj 163 173 mod 1;
#X obj 163 200 sel 0;
#X obj 100 141 moses 31;
#X obj 244 193 c_lfo red 0.5 50 sine;
#X obj 380 193 c_lfo green 1 50 sine;
#X obj 516 193 c_lfo blue 1.5 50 sine;
#X obj 103 438 s red;
#X obj 193 438 s green;
#X obj 293 438 s blue;
#X msg 103 414 \$1 \, 0 \$2;
#X msg 193 414 \$1 \, 0 \$2;
#X msg 293 414 \$1 \, 0 \$2;
#X obj 103 330 f;
#X obj 193 330 f;
#X obj 293 330 f;
#X obj 103 228 t b b b;
#X obj 244 215 * 255;
#X obj 244 239 int;
#X obj 380 215 * 255;
#X obj 380 239 int;
#X obj 516 215 * 255;
#X obj 516 239 int;
#X obj 227 26 r synthIntro;
#X obj 293 390 pack f 230;
#X obj 193 390 pack f 230;
#X obj 103 390 pack f 230;
#X floatatom 234 48 5 0 0 0 - - -;
#X obj 293 360 * 1;
#X obj 193 360 * 1;
#X obj 103 360 * 1;
#X obj 327 94 r accel;
#X obj 327 117 unpack f f f;
#X obj 396 141 > 0.8;
#X connect 0 0 1 0;
#X connect 1 0 2 0;
#X connect 2 0 8 0;
#X connect 3 0 4 0;
#X connect 4 0 21 0;
#X connect 5 0 6 0;
#X connect 5 1 3 0;
#X connect 6 0 7 0;
#X connect 7 0 21 0;
#X connect 8 0 3 0;
#X connect 8 1 5 0;
#X connect 9 0 22 0;
#X connect 10 0 24 0;
#X connect 11 0 26 0;
#X connect 15 0 12 0;
#X connect 16 0 13 0;
#X connect 17 0 14 0;
#X connect 18 0 35 0;
#X connect 19 0 34 0;
#X connect 20 0 33 0;
#X connect 21 0 18 0;
#X connect 21 1 19 0;
#X connect 21 2 20 0;
#X connect 22 0 23 0;
#X connect 23 0 18 1;
#X connect 24 0 25 0;
#X connect 25 0 19 1;
#X connect 26 0 27 0;
#X connect 27 0 20 1;
#X connect 28 0 1 1;
#X connect 28 0 32 0;
#X connect 29 0 17 0;
#X connect 30 0 16 0;
#X connect 31 0 15 0;
#X connect 33 0 29 0;
#X connect 34 0 30 0;
#X connect 35 0 31 0;
#X connect 36 0 37 0;
#X connect 37 2 38 0;
#X connect 38 0 33 1;
#X connect 38 0 34 1;
#X connect 38 0 35 1;
#X restore 40 88 pd DMX-intro;
#N canvas 0 22 763 489 DMX-delay 0;
#X obj 98 202 * 255;
#X obj 98 256 int;
#X obj 254 202 * 255;
#X obj 254 256 int;
#X obj 410 202 * 255;
#X obj 410 256 int;
#X obj 98 227 spigot;
#X obj 254 227 spigot;
#X obj 410 227 spigot;
#X obj 410 279 s blue2;
#X obj 254 279 s green2;
#X obj 98 279 s red2;
#X obj 98 150 c_lfo red 0.25 25 sine;
#X obj 254 150 c_lfo green 0.1 25 sine;
#X obj 410 150 c_lfo blue 0.5 25 sine;
#X obj 586 112 f;
#X obj 586 84 r 3-down;
#X connect 0 0 6 0;
#X connect 1 0 11 0;
#X connect 2 0 7 0;
#X connect 3 0 10 0;
#X connect 4 0 8 0;
#X connect 5 0 9 0;
#X connect 6 0 1 0;
#X connect 7 0 3 0;
#X connect 8 0 5 0;
#X connect 12 0 0 0;
#X connect 13 0 2 0;
#X connect 14 0 4 0;
#X connect 15 0 8 1;
#X connect 15 0 7 1;
#X connect 15 0 6 1;
#X connect 16 0 15 0;
#X restore 40 110 pd DMX-delay;
