#N canvas 433 176 348 352 10;
#N canvas 15 207 604 484 RGB_____________ 0;
#X obj 97 76 inlet;
#X obj 262 73 inlet;
#X obj 339 75 inlet;
#X obj 405 76 inlet;
#X obj 97 340 bang;
#X msg 77 365 0;
#X msg 104 365 1;
#X obj 146 338 bang;
#X msg 132 365 0;
#X msg 160 365 1;
#X obj 265 383 spigot;
#X obj 312 383 spigot;
#X obj 249 455 outlet;
#X text 93 53 select;
#X text 267 48 red;
#X text 337 50 green;
#X text 409 50 blue;
#X obj 405 172 t b f;
#X obj 339 230 +;
#X obj 339 255 t b f;
#X obj 339 286 +;
#X obj 296 455 outlet;
#X obj 28 250 loadbang;
#X obj 296 431 f;
#X obj 249 431 f;
#X obj 262 149 * -65536;
#X obj 339 150 * -256;
#X obj 405 150 * -1;
#X obj 339 317 - 1;
#X obj 97 205 route back label bang;
#X obj 235 238 t b b b;
#X obj 503 42 inlet;
#X text 507 16 fader;
#X obj 262 99 f;
#X obj 339 100 f;
#X obj 405 100 f;
#X obj 503 84 t b f;
#X obj 405 125 * 1;
#X obj 339 125 * 1;
#X obj 262 124 * 1;
#X obj 503 63 / 255;
#X connect 0 0 29 0;
#X connect 1 0 33 0;
#X connect 2 0 34 0;
#X connect 3 0 35 0;
#X connect 4 0 5 0;
#X connect 4 0 6 0;
#X connect 5 0 11 1;
#X connect 6 0 10 1;
#X connect 7 0 8 0;
#X connect 7 0 9 0;
#X connect 8 0 10 1;
#X connect 9 0 11 1;
#X connect 10 0 24 1;
#X connect 11 0 23 1;
#X connect 17 0 18 0;
#X connect 17 1 18 1;
#X connect 18 0 19 0;
#X connect 19 0 20 0;
#X connect 19 1 20 1;
#X connect 20 0 28 0;
#X connect 22 0 6 0;
#X connect 23 0 21 0;
#X connect 24 0 12 0;
#X connect 25 0 20 0;
#X connect 26 0 18 0;
#X connect 27 0 17 0;
#X connect 28 0 11 0;
#X connect 28 0 10 0;
#X connect 29 0 4 0;
#X connect 29 1 7 0;
#X connect 29 2 30 0;
#X connect 30 0 24 0;
#X connect 30 1 23 0;
#X connect 30 2 28 0;
#X connect 31 0 40 0;
#X connect 33 0 39 0;
#X connect 34 0 38 0;
#X connect 35 0 37 0;
#X connect 36 0 35 0;
#X connect 36 0 34 0;
#X connect 36 0 33 0;
#X connect 36 1 37 1;
#X connect 36 1 38 1;
#X connect 36 1 39 1;
#X connect 37 0 27 0;
#X connect 38 0 26 0;
#X connect 39 0 25 0;
#X connect 40 0 36 0;
#X restore 33 239 pd RGB_____________;
#X obj 33 41 r dmx-control;
#X obj 33 188 t b a;
#X obj 60 213 route 1 2 3 4;
#X msg 33 165 \$2 \$1;
#X obj 201 221 cnv 15 70 70 empty empty empty 20 12 0 14 -33289 -66577
0;
#X obj 206 226 cnv 15 60 60 empty lamp-\$1 empty 20 12 0 14 -1408 -262144
0;
#X obj 33 64 unpack f f;
#X obj 90 90 - \$1;
#X obj 33 141 pack f f;
#X obj 33 264 pack 0 0 \$1;
#X msg 33 288 \; lamp-\$3 color \$1 \$2;
#X obj 90 116 + 2;
#X connect 0 0 10 0;
#X connect 0 1 10 1;
#X connect 1 0 7 0;
#X connect 2 0 0 0;
#X connect 2 1 3 0;
#X connect 3 0 0 1;
#X connect 3 1 0 2;
#X connect 3 2 0 3;
#X connect 3 3 0 4;
#X connect 4 0 2 0;
#X connect 7 0 9 0;
#X connect 7 1 8 0;
#X connect 8 0 12 0;
#X connect 9 0 4 0;
#X connect 10 0 11 0;
#X connect 12 0 9 1;
#X coords 0 -1 1 1 72 92 1 200 200;
