#N canvas 388 93 1031 551 10;
#X declare -path abs;
#X declare -path abs/oscx;
#X declare -path abs/dmxControl;
#X declare -path DMX;
#X obj 42 30 declare -path abs;
#X obj 42 50 declare -path abs/oscx;
#X obj 42 70 declare -path abs/dmxControl;
#N canvas 687 119 753 654 DMX-stutter 0;
#X obj 69 321 mod;
#X obj 69 347 sel 0;
#X msg 144 249 8;
#X msg 194 249 4;
#X msg 244 249 2;
#X msg 294 249 1;
#X obj 144 102 sel 0 1 2 3 4;
#X obj 144 146 t b b b;
#X obj 69 404 t b b b;
#X msg 69 531 \$1 \, 0 \$2;
#X msg 159 531 \$1 \, 0 \$2;
#X msg 259 531 \$1 \, 0 \$2;
#X obj 259 474 * 1;
#X obj 159 474 * 1;
#X obj 69 474 * 1;
#X obj 69 507 pack f f;
#X obj 159 507 pack f f;
#X obj 259 507 pack f f;
#X obj 194 146 t b b b;
#X obj 244 146 t b b b;
#X obj 294 146 t b b b;
#X obj 316 380 f;
#X obj 144 77 change;
#X obj 69 16 r \$0-tick2;
#X obj 337 544 inlet;
#X obj 144 48 r \$0-stutter-speed;
#X obj 485 106 r \$0-tick-val;
#X obj 437 249 f;
#X obj 477 249 f;
#X obj 517 249 f;
#X obj 557 249 f;
#X obj 452 214 * 3.6;
#X obj 492 214 * 2.7;
#X obj 532 214 * 1.8;
#X obj 572 214 * 0.9;
#X obj 597 249 f;
#X obj 485 130 t f f f f f;
#X obj 612 214 * 0.45;
#X obj 344 146 t b b b;
#X obj 69 445 f 128;
#X obj 159 445 f 128;
#X obj 259 446 f 128;
#X obj 505 316 r \$0-stutter-freq;
#X obj 543 394 swap 60;
#X obj 543 419 -;
#X obj 532 363 t f f;
#X obj 505 338 sel 0;
#X msg 505 363 128;
#X obj 69 605 s red;
#X obj 159 605 s green;
#X obj 259 605 s blue;
#X obj 69 575 spigot;
#X obj 159 575 spigot;
#X obj 259 575 spigot;
#X connect 0 0 1 0;
#X connect 1 0 8 0;
#X connect 2 0 0 1;
#X connect 3 0 0 1;
#X connect 4 0 0 1;
#X connect 5 0 0 1;
#X connect 6 0 7 0;
#X connect 6 1 18 0;
#X connect 6 2 19 0;
#X connect 6 3 20 0;
#X connect 6 4 38 0;
#X connect 7 0 2 0;
#X connect 7 1 27 0;
#X connect 8 0 39 0;
#X connect 8 1 40 0;
#X connect 8 2 41 0;
#X connect 9 0 51 0;
#X connect 10 0 52 0;
#X connect 11 0 53 0;
#X connect 12 0 17 0;
#X connect 13 0 16 0;
#X connect 14 0 15 0;
#X connect 15 0 9 0;
#X connect 16 0 10 0;
#X connect 17 0 11 0;
#X connect 18 0 3 0;
#X connect 18 1 28 0;
#X connect 19 0 4 0;
#X connect 19 1 29 0;
#X connect 20 0 5 0;
#X connect 20 1 30 0;
#X connect 21 0 15 1;
#X connect 21 0 16 1;
#X connect 21 0 17 1;
#X connect 22 0 6 0;
#X connect 23 0 0 0;
#X connect 24 0 53 1;
#X connect 24 0 52 1;
#X connect 24 0 51 1;
#X connect 25 0 22 0;
#X connect 26 0 36 0;
#X connect 27 0 21 0;
#X connect 28 0 21 0;
#X connect 29 0 21 0;
#X connect 30 0 21 0;
#X connect 31 0 27 1;
#X connect 32 0 28 1;
#X connect 33 0 29 1;
#X connect 34 0 30 1;
#X connect 35 0 21 0;
#X connect 36 0 31 0;
#X connect 36 1 32 0;
#X connect 36 2 33 0;
#X connect 36 3 34 0;
#X connect 36 4 37 0;
#X connect 37 0 35 1;
#X connect 38 0 5 0;
#X connect 38 1 35 0;
#X connect 39 0 14 0;
#X connect 40 0 13 0;
#X connect 41 0 12 0;
#X connect 42 0 46 0;
#X connect 43 0 44 0;
#X connect 43 1 44 1;
#X connect 44 0 41 1;
#X connect 45 0 40 1;
#X connect 45 1 43 0;
#X connect 46 0 47 0;
#X connect 46 1 45 0;
#X connect 47 0 40 1;
#X connect 47 0 39 1;
#X connect 51 0 48 0;
#X connect 52 0 49 0;
#X connect 53 0 50 0;
#X restore 658 50 pd DMX-stutter;
#N canvas 141 411 404 554 DMX-delay 0;
#X obj 55 348 pack f f f;
#X obj 55 194 t b b b;
#X msg 55 374 \$1 \$2 \$3;
#X obj 55 46 tgl 15 0 empty empty empty 17 7 0 10 -262144 -1 -1 1 1
;
#X obj 55 403 t a b;
#X msg 82 437 seq;
#X obj 55 497 DMX-colour-goto3 5000;
#X obj 55 68 metro 1000;
#X obj 82 468 s dmx-dist2;
#X obj 55 92 f;
#X obj 86 91 + 1;
#X obj 55 115 mod 8;
#X obj 55 142 sel 0;
#X msg 82 166 bang;
#X obj 29 217 bng 15 250 50 0 empty empty empty 17 7 0 10 -262144 -1
-1;
#X obj 55 219 random 6;
#X obj 55 244 sel 0 1 2 3 4 5;
#X msg 55 273 255 0 0;
#X msg 65 293 0 255 0;
#X msg 75 313 0 0 255;
#X msg 125 273 255 255 0;
#X msg 135 293 255 0 255;
#X msg 146 313 0 0 255;
#X floatatom 142 75 5 0 0 0 - - -;
#X obj 148 107 * 8;
#X obj 55 19 r idle;
#X connect 0 0 2 0;
#X connect 1 0 14 0;
#X connect 1 0 15 0;
#X connect 2 0 4 0;
#X connect 3 0 7 0;
#X connect 4 0 6 0;
#X connect 4 1 5 0;
#X connect 5 0 8 0;
#X connect 7 0 9 0;
#X connect 9 0 10 0;
#X connect 9 0 11 0;
#X connect 10 0 9 1;
#X connect 11 0 12 0;
#X connect 12 0 1 0;
#X connect 12 1 13 0;
#X connect 13 0 0 0;
#X connect 15 0 16 0;
#X connect 16 0 17 0;
#X connect 16 1 18 0;
#X connect 16 2 19 0;
#X connect 16 3 20 0;
#X connect 16 4 21 0;
#X connect 16 5 22 0;
#X connect 17 0 0 0;
#X connect 18 0 0 0;
#X connect 19 0 0 0;
#X connect 20 0 0 0;
#X connect 21 0 0 0;
#X connect 22 0 0 0;
#X connect 23 0 7 1;
#X connect 23 0 24 0;
#X connect 24 0 6 2;
#X connect 25 0 3 0;
#X restore 750 50 pd DMX-delay;
#N canvas 448 169 433 522 DMX-shake 0;
#X obj 32 32 r \$0-tick;
#X msg 32 399 \$1 \, 0 \$2;
#X msg 122 399 \$1 \, 0 \$2;
#X obj 32 213 t b b b;
#X obj 137 217 * 255;
#X obj 137 241 int;
#X obj 122 345 * 1;
#X obj 32 345 * 1;
#X obj 32 375 pack f 900;
#X obj 122 375 pack f 900;
#X obj 137 266 swap 255;
#X obj 137 289 -;
#X obj 137 195 c_lfo red 0.015 50 sine;
#X msg 212 399 \$1 \, 0 \$2;
#X obj 212 345 * 1;
#X obj 212 375 pack f 900;
#X obj 282 423 inlet;
#X obj 32 99 mod 4;
#X obj 32 139 sel 0;
#X obj 212 315 f 128;
#X obj 157 113 r shake;
#X obj 157 137 / 80;
#X obj 157 161 + 0.2;
#X obj 122 315 f 128;
#X obj 32 315 f 128;
#X obj 32 483 s red;
#X obj 122 483 s green;
#X obj 212 483 s blue;
#X obj 32 453 spigot;
#X obj 122 453 spigot;
#X obj 212 453 spigot;
#X connect 0 0 17 0;
#X connect 1 0 28 0;
#X connect 2 0 29 0;
#X connect 3 0 24 0;
#X connect 3 1 23 0;
#X connect 3 2 19 0;
#X connect 4 0 5 0;
#X connect 5 0 10 0;
#X connect 6 0 9 0;
#X connect 7 0 8 0;
#X connect 8 0 1 0;
#X connect 9 0 2 0;
#X connect 10 0 11 0;
#X connect 10 1 11 1;
#X connect 12 0 4 0;
#X connect 13 0 30 0;
#X connect 14 0 15 0;
#X connect 15 0 13 0;
#X connect 16 0 30 1;
#X connect 16 0 29 1;
#X connect 16 0 28 1;
#X connect 17 0 18 0;
#X connect 18 0 3 0;
#X connect 19 0 14 0;
#X connect 20 0 21 0;
#X connect 21 0 22 0;
#X connect 22 0 7 1;
#X connect 22 0 6 1;
#X connect 22 0 14 1;
#X connect 23 0 6 0;
#X connect 24 0 7 0;
#X connect 28 0 25 0;
#X connect 29 0 26 0;
#X connect 30 0 27 0;
#X restore 369 20 pd DMX-shake;
#N canvas 652 45 788 448 DMX-drop-mode 0;
#X obj 108 306 int;
#X obj 264 306 int;
#X obj 420 306 int;
#X obj 420 329 s blue2;
#X obj 264 329 s green2;
#X obj 108 329 s red2;
#X obj 108 212 spigot;
#X obj 264 212 spigot;
#X obj 420 212 spigot;
#X obj 628 160 inlet;
#X obj 108 160 c_lfo red 0.025 25 sine;
#X obj 264 160 c_lfo green 0.01 25 sine;
#X obj 420 160 c_lfo blue 0.05 25 sine;
#X obj 420 272 * 100;
#X obj 264 272 * 100;
#X obj 108 272 * 100;
#X obj 555 240 c_lfo lfo 2.336 25 sine;
#X obj 555 286 + 50;
#X obj 555 263 * 3;
#X connect 0 0 5 0;
#X connect 1 0 4 0;
#X connect 2 0 3 0;
#X connect 6 0 15 0;
#X connect 7 0 14 0;
#X connect 8 0 13 0;
#X connect 9 0 8 1;
#X connect 9 0 7 1;
#X connect 9 0 6 1;
#X connect 10 0 6 0;
#X connect 11 0 7 0;
#X connect 12 0 8 0;
#X connect 13 0 2 0;
#X connect 14 0 1 0;
#X connect 15 0 0 0;
#X connect 16 0 18 0;
#X connect 17 0 13 1;
#X connect 17 0 14 1;
#X connect 17 0 15 1;
#X connect 18 0 17 0;
#X restore 449 20 pd DMX-drop-mode;
#N canvas 581 57 859 709 DMX-main 0;
#X obj 32 32 r \$0-tick;
#X obj 32 126 moses 32;
#X obj 32 265 mod 8;
#X obj 32 299 sel 4;
#X obj 32 99 mod 128;
#X obj 77 151 moses 58;
#X obj 122 175 moses 96;
#X obj 73 299 sel 126;
#X obj 32 623 s red;
#X obj 122 623 s green;
#X msg 32 559 \$1 \, 0 \$2;
#X msg 122 559 \$1 \, 0 \$2;
#X obj 32 373 t b b b;
#X obj 137 377 * 255;
#X obj 137 401 int;
#X obj 122 505 * 1;
#X obj 32 505 * 1;
#X obj 32 535 pack f 900;
#X obj 122 535 pack f 900;
#X obj 32 475 f 255;
#X obj 122 475 f 0;
#X obj 137 426 swap 255;
#X obj 137 449 -;
#X obj 137 355 c_lfo red 0.015 50 sine;
#X msg 212 559 \$1 \, 0 \$2;
#X obj 212 505 * 1;
#X obj 212 535 pack f 900;
#X obj 212 475 f 0;
#X obj 212 623 s blue;
#X obj 287 562 inlet;
#X obj 32 593 spigot;
#X obj 122 593 spigot;
#X obj 212 593 spigot;
#X obj 314 406 sel 32 36 44 48;
#X obj 314 467 unpack f f f;
#X obj 314 493 pack f 1400;
#X obj 404 493 pack f 1400;
#X obj 494 493 pack f 1400;
#X msg 314 432 255 255 0;
#X msg 381 432 255 255 0;
#X msg 446 431 255 0 0;
#X msg 501 431 0 255 255;
#X msg 314 517 \$1 \$2;
#X msg 404 517 \$1 \$2;
#X msg 494 517 \$1 \$2;
#X obj 629 443 sel 108 112;
#X obj 166 199 moses 114;
#X msg 629 468 50;
#X connect 0 0 4 0;
#X connect 1 0 2 0;
#X connect 1 1 5 0;
#X connect 2 0 3 0;
#X connect 3 0 12 0;
#X connect 4 0 1 0;
#X connect 5 0 33 0;
#X connect 5 1 6 0;
#X connect 6 0 2 0;
#X connect 6 1 46 0;
#X connect 7 0 12 0;
#X connect 10 0 30 0;
#X connect 11 0 31 0;
#X connect 12 0 19 0;
#X connect 12 1 20 0;
#X connect 12 2 27 0;
#X connect 13 0 14 0;
#X connect 14 0 21 0;
#X connect 14 0 19 1;
#X connect 15 0 18 0;
#X connect 16 0 17 0;
#X connect 17 0 10 0;
#X connect 18 0 11 0;
#X connect 19 0 16 0;
#X connect 20 0 15 0;
#X connect 21 0 22 0;
#X connect 21 1 22 1;
#X connect 22 0 20 1;
#X connect 23 0 13 0;
#X connect 24 0 32 0;
#X connect 25 0 26 0;
#X connect 26 0 24 0;
#X connect 27 0 25 0;
#X connect 29 0 32 1;
#X connect 29 0 31 1;
#X connect 29 0 30 1;
#X connect 30 0 8 0;
#X connect 31 0 9 0;
#X connect 32 0 28 0;
#X connect 33 0 38 0;
#X connect 33 1 39 0;
#X connect 33 2 40 0;
#X connect 33 3 41 0;
#X connect 34 0 35 0;
#X connect 34 1 36 0;
#X connect 34 2 37 0;
#X connect 35 0 42 0;
#X connect 36 0 43 0;
#X connect 37 0 44 0;
#X connect 38 0 34 0;
#X connect 39 0 34 0;
#X connect 40 0 34 0;
#X connect 41 0 34 0;
#X connect 42 0 30 0;
#X connect 43 0 31 0;
#X connect 44 0 32 0;
#X connect 45 0 47 0;
#X connect 45 1 47 0;
#X connect 46 0 45 0;
#X connect 46 1 2 0;
#X connect 46 1 7 0;
#X connect 47 0 17 0;
#X connect 47 0 18 0;
#X connect 47 0 26 0;
#X restore 288 20 pd DMX-main;
#X obj 42 10 declare -path DMX;
#X obj 755 97 dmxControl;
#X obj 414 350 r all-faders-on;
#X obj 414 425 until;
#X msg 414 400 12;
#X obj 414 376 t b b;
#X msg 414 487 \; \$1-fader 1 \;;
#X obj 414 455 f;
#X obj 439 455 + 1;
#X msg 449 401 1;
#X obj 393 337 bng 15 250 50 0 empty empty empty 17 7 0 10 -262144
-1 -1;
#X obj 75 160 r red;
#X obj 185 160 r green;
#X obj 295 160 r blue;
#X obj 185 259 t a b;
#X msg 213 283 0;
#X obj 185 308 pack f 0 f;
#X msg 185 334 \; green-\$3 \$1 \$2;
#X obj 376 42 r dmx-dist;
#X obj 75 259 t a b;
#X msg 103 283 0;
#X obj 75 308 pack f 0 f;
#X msg 75 334 \; red-\$3 \$1 \$2;
#X obj 295 259 t a b;
#X msg 323 283 0;
#X obj 295 308 pack f 0 f;
#X msg 295 334 \; blue-\$3 \$1 \$2;
#X obj 414 190 + 1;
#X msg 471 179 0;
#X obj 413 157 random 8;
#X obj 533 219 + 1;
#X obj 506 219 f;
#X obj 506 160 t a b;
#X msg 533 189 1;
#X obj 553 159 t a b;
#X msg 580 188 -1;
#X obj 506 264 + 1;
#X obj 506 242 mod 8;
#X obj 376 133 route float random all seq seq-rev back-4 front-4;
#X msg 617 166 11;
#X msg 652 166 12;
#X obj 376 234 i;
#N canvas 45 488 326 302 DMX-airy-drums 0;
#X obj 35 91 OSCroute /airy-kick /airy-snare;
#X obj 35 44 symbol;
#X obj 62 181 s dmx-dist;
#X obj 35 116 t b b;
#X obj 92 118 t b b;
#X obj 35 20 r airy-bass-drums;
#X msg 35 207 255 0 0;
#X msg 92 207 255 255 255;
#X obj 190 141 metro 1000;
#X msg 189 173 255 255 255;
#X obj 197 118 bng 15 250 50 0 empty empty empty 17 7 0 10 -262144
-1 -1;
#X obj 222 124 tgl 15 0 empty empty empty 17 7 0 10 -262144 -1 -1 0
1;
#X obj 35 68 pipe s 300;
#X obj 92 44 r latency-comp;
#X msg 119 150 20;
#X msg 62 150 21;
#X obj 92 262 DMX-colour-goto 100;
#X obj 35 239 DMX-colour-goto 100;
#X connect 0 0 3 0;
#X connect 0 1 4 0;
#X connect 1 0 12 0;
#X connect 3 0 6 0;
#X connect 3 1 15 0;
#X connect 4 0 7 0;
#X connect 4 1 14 0;
#X connect 5 0 1 0;
#X connect 6 0 17 0;
#X connect 7 0 16 0;
#X connect 8 0 9 0;
#X connect 10 0 8 0;
#X connect 11 0 8 0;
#X connect 12 0 0 0;
#X connect 13 0 12 1;
#X connect 14 0 2 0;
#X connect 15 0 2 0;
#X restore 533 381 pd DMX-airy-drums;
#X obj 533 312 dumpOSC 5000;
#X obj 533 336 s airy-bass-drums;
#N canvas 469 405 447 332 DMX-airy-bass 0;
#X obj 45 30 r airy-bass-drums;
#X obj 45 200 int;
#X msg 45 262 \$1 \$1 \$1;
#X obj 187 298 s dmx-dist;
#X obj 45 173 m_scale 31 46 40 255;
#X obj 45 143 t f b;
#X obj 45 61 OSCroute /airy-bass /airy-bass-clip;
#X obj 273 103 sel 0 1;
#X obj 187 225 tgl 15 0 empty empty empty 17 7 0 10 -262144 -1 -1 0
1;
#X obj 187 245 sel 0 1;
#X obj 90 94 r latency-comp;
#X msg 187 272 9;
#X msg 220 273 10;
#X msg 45 232 255;
#X obj 45 284 DMX-colour-goto 600;
#X obj 186 154 list prepend;
#X obj 188 177 list trim;
#X msg 250 234 seq;
#X obj 190 197 route side seq;
#X obj 279 79 tgl 15 0 empty empty empty 17 7 0 10 -262144 -1 -1 0
1;
#X msg 329 144 seq;
#X msg 273 144 side;
#X obj 45 118 pipe 350;
#X connect 0 0 6 0;
#X connect 1 0 13 0;
#X connect 2 0 14 0;
#X connect 4 0 1 0;
#X connect 5 0 4 0;
#X connect 5 1 15 0;
#X connect 6 0 22 0;
#X connect 6 1 7 0;
#X connect 6 1 19 0;
#X connect 7 0 21 0;
#X connect 7 1 20 0;
#X connect 8 0 9 0;
#X connect 9 0 11 0;
#X connect 9 1 12 0;
#X connect 10 0 22 1;
#X connect 11 0 3 0;
#X connect 12 0 3 0;
#X connect 13 0 2 0;
#X connect 15 0 16 0;
#X connect 16 0 18 0;
#X connect 17 0 3 0;
#X connect 18 0 8 0;
#X connect 18 1 17 0;
#X connect 20 0 15 1;
#X connect 21 0 15 1;
#X connect 22 0 5 0;
#X restore 533 402 pd DMX-airy-bass;
#N canvas 590 128 728 420 DMX-master-fx 0;
#X obj 76 11 dumpOSC 5002;
#X obj 76 69 m_bpm2ms;
#X obj 173 259 s dmx-dist;
#X obj 30 222 metro;
#X obj 30 194 tgl 15 0 empty empty empty 17 7 0 10 -262144 -1 -1 0
1;
#X obj 76 93 / 2;
#X msg 111 270 0 0 0;
#X msg 30 259 255 255 255;
#X obj 30 297 DMX-colour-flash4 255 0 0 255 255 255 200;
#X msg 173 79 \$1 2500;
#X obj 173 103 line;
#X obj 173 153 int;
#X msg 203 234 18;
#X msg 263 234 all;
#X obj 173 178 change;
#X obj 173 127 * 6;
#X obj 173 205 sel 0 1 2 3 4;
#X obj 76 41 OSCroute /bpm /master-trem-effect /airy-beat-repeat;
#X obj 111 246 loadbang;
#X obj 467 204 s dmx-dist;
#X obj 350 157 metro;
#X obj 350 79 tgl 15 0 empty empty empty 17 7 0 10 -262144 -1 -1 0
1;
#X msg 429 349 0 0 0;
#X msg 467 179 all;
#X obj 429 326 loadbang;
#X obj 366 105 sel 1;
#X obj 376 134 / 4;
#X obj 350 316 pack f f f;
#X obj 350 271 max 0;
#X obj 350 294 min 255;
#X obj 400 271 max 0;
#X obj 400 294 min 255;
#X obj 450 271 max 0;
#X obj 450 294 min 255;
#X obj 392 185 - 5;
#X msg 423 128 255;
#X obj 350 185 f 255;
#X obj 350 210 t f f f;
#X obj 399 240 + 510;
#X obj 451 239 + 254;
#X msg 173 234 19;
#X msg 233 234 17;
#X obj 350 372 DMX-colour-flash4 255 0 0 255 255 255 60;
#X connect 0 0 17 0;
#X connect 1 0 5 0;
#X connect 1 0 26 0;
#X connect 3 0 7 0;
#X connect 4 0 3 0;
#X connect 5 0 3 1;
#X connect 6 0 8 1;
#X connect 7 0 8 0;
#X connect 9 0 10 0;
#X connect 10 0 15 0;
#X connect 11 0 14 0;
#X connect 12 0 2 0;
#X connect 13 0 2 0;
#X connect 14 0 16 0;
#X connect 15 0 11 0;
#X connect 16 0 40 0;
#X connect 16 1 40 0;
#X connect 16 2 12 0;
#X connect 16 3 41 0;
#X connect 16 4 13 0;
#X connect 17 0 1 0;
#X connect 17 1 9 0;
#X connect 17 1 4 0;
#X connect 17 2 21 0;
#X connect 18 0 6 0;
#X connect 20 0 36 0;
#X connect 20 0 23 0;
#X connect 21 0 20 0;
#X connect 21 0 25 0;
#X connect 22 0 42 1;
#X connect 23 0 19 0;
#X connect 24 0 22 0;
#X connect 25 0 35 0;
#X connect 26 0 20 1;
#X connect 27 0 42 0;
#X connect 28 0 29 0;
#X connect 29 0 27 0;
#X connect 30 0 31 0;
#X connect 31 0 27 1;
#X connect 32 0 33 0;
#X connect 33 0 27 2;
#X connect 34 0 36 1;
#X connect 35 0 36 1;
#X connect 36 0 34 0;
#X connect 36 0 37 0;
#X connect 37 0 28 0;
#X connect 37 1 38 0;
#X connect 37 2 39 0;
#X connect 38 0 30 0;
#X connect 39 0 32 0;
#X connect 40 0 2 0;
#X connect 41 0 2 0;
#X restore 533 285 pd DMX-master-fx;
#X obj 39 98 DMX-vis-6;
#N canvas 65 316 596 618 DMX-control 0;
#X msg 92 63 1 2 3 4 5 6 7 8 9 10 11 12;
#X msg 92 109 1;
#X msg 92 158 2;
#X msg 92 205 3;
#X msg 92 251 4;
#X msg 92 300 5;
#X msg 92 349 6;
#X msg 92 398 7;
#X msg 92 445 8;
#X msg 312 69 1 2 7 8;
#X msg 312 118 3 4 5 6;
#X obj 267 92 dmxBus 11;
#X obj 47 85 dmxBus 0;
#X obj 47 132 dmxBus 1;
#X obj 47 182 dmxBus 2;
#X obj 47 227 dmxBus 3;
#X obj 47 274 dmxBus 4;
#X obj 47 325 dmxBus 5;
#X obj 47 372 dmxBus 6;
#X obj 47 422 dmxBus 7;
#X obj 47 467 dmxBus 8;
#X obj 267 142 dmxBus 12;
#X obj 267 187 dmxBus 13;
#X obj 267 234 dmxBus 14;
#X obj 267 285 dmxBus 15;
#X obj 267 332 dmxBus 16;
#X obj 267 382 dmxBus 17;
#X obj 267 427 dmxBus 18;
#X obj 267 474 dmxBus 19;
#X obj 267 524 dmxBus 20;
#X obj 92 40 t b;
#X obj 32 23 loadbang;
#X obj 362 25 bng 15 250 50 0 empty empty empty 17 7 0 10 -262144 -1
-1;
#X obj 312 40 t b;
#X msg 312 165 1 2;
#X msg 312 211 3 4;
#X msg 312 260 5 6;
#X msg 312 309 7 8;
#X msg 312 358 1 8;
#X msg 312 405 1 2 7 8;
#X msg 312 451 1 2 3 6 7 8;
#X msg 312 500 4 5;
#X text 342 500 Front 2;
#X text 391 449 Back 6;
#X text 367 405 Back 4;
#X text 341 358 Back 2;
#X text 341 308 Back-right 2;
#X text 341 260 Front-right 2;
#X text 341 211 Front-left 2;
#X text 341 164 Back-left 2;
#X text 361 118 Front;
#X text 361 69 Back;
#X msg 312 550 1 2 3 6 7 8;
#X text 392 550 Back 6;
#X obj 477 76 dmxLamp 3 13;
#X obj 477 56 dmxLamp 2 7;
#X obj 477 36 dmxLamp 1 1;
#X obj 477 96 dmxLamp 4 19;
#X obj 477 116 dmxLamp 5 25;
#X obj 477 136 dmxLamp 6 31;
#X obj 477 156 dmxLamp 7 37;
#X obj 477 176 dmxLamp 8 43;
#X obj 477 196 dmxLamp 9 49;
#X obj 477 216 dmxLamp 10 55;
#X obj 477 236 dmxLamp 11 61;
#X obj 477 256 dmxLamp 12 67;
#X text 170 2 Busses;
#X text 493 5 Lamps;
#X obj 486 301 loadbang;
#X obj 486 325 bng 15 250 50 0 empty empty empty 17 7 0 10 -262144
-1 -1;
#X obj 486 347 s DMX-init;
#X obj 267 574 dmxBus 21;
#X obj 47 516 dmxBus 9;
#X msg 92 492 1 2 3 4;
#X msg 92 539 5 6 7 8;
#X obj 47 561 dmxBus 10;
#X connect 0 0 12 1;
#X connect 1 0 13 1;
#X connect 2 0 14 1;
#X connect 3 0 15 1;
#X connect 4 0 16 1;
#X connect 5 0 17 1;
#X connect 6 0 18 1;
#X connect 7 0 19 1;
#X connect 8 0 20 1;
#X connect 9 0 11 1;
#X connect 10 0 21 1;
#X connect 30 0 0 0;
#X connect 30 0 1 0;
#X connect 30 0 2 0;
#X connect 30 0 3 0;
#X connect 30 0 4 0;
#X connect 30 0 5 0;
#X connect 30 0 6 0;
#X connect 30 0 7 0;
#X connect 30 0 8 0;
#X connect 30 0 73 0;
#X connect 30 0 74 0;
#X connect 31 0 30 0;
#X connect 31 0 33 0;
#X connect 32 0 30 0;
#X connect 32 0 33 0;
#X connect 33 0 9 0;
#X connect 33 0 10 0;
#X connect 33 0 34 0;
#X connect 33 0 35 0;
#X connect 33 0 36 0;
#X connect 33 0 37 0;
#X connect 33 0 38 0;
#X connect 33 0 39 0;
#X connect 33 0 40 0;
#X connect 33 0 41 0;
#X connect 33 0 52 0;
#X connect 34 0 22 1;
#X connect 35 0 23 1;
#X connect 36 0 24 1;
#X connect 37 0 25 1;
#X connect 38 0 26 1;
#X connect 39 0 27 1;
#X connect 40 0 28 1;
#X connect 41 0 29 1;
#X connect 52 0 71 1;
#X connect 68 0 69 0;
#X connect 69 0 70 0;
#X connect 73 0 72 1;
#X connect 74 0 75 1;
#X restore 74 378 pd DMX-control;
#X obj 136 477 s latency-comp;
#X obj 136 425 loadbang;
#N canvas 419 202 841 376 DMX-airy-4T-grains 0;
#X obj 24 25 dumpOSC 5001;
#X obj 79 322 s dmx-dist;
#X msg 79 297 13;
#X msg 109 297 14;
#X msg 139 297 15;
#X msg 169 297 16;
#X obj 24 71 grain-light-flash 0;
#X obj 24 269 DMX-colour-flash4 255 0 0 255 255 255 500;
#X obj 24 49 OSCroute /grain-sync /grain-start /grains-vol;
#X obj 256 83 * 2;
#X obj 256 103 max 0;
#X obj 256 123 min 1;
#X obj 312 118 loadbang;
#X floatatom 274 151 5 0 0 0 - - -;
#X obj 44 93 grain-light-flash 1;
#X obj 64 113 grain-light-flash 2;
#X obj 84 133 grain-light-flash 3;
#X obj 104 153 grain-light-flash 4;
#X msg 321 169 255 255 255;
#X msg 312 140 0 0 0;
#X obj 204 241 max 150;
#X obj 612 178 s dmx-dist;
#X obj 444 140 t f b;
#X obj 444 68 OSCroute /airy-4t-note;
#X obj 444 170 sel 72 74 77 79 81;
#X msg 612 154 all;
#X msg 646 153 seq;
#X obj 444 282 DMX-colour-flash4 3000;
#X msg 578 256 255 255 255;
#X obj 722 235 loadbang;
#X msg 444 207 0 0 128;
#X msg 506 206 0 128 32;
#X msg 577 206 32 64 0;
#X msg 647 206 0 128 32;
#X msg 713 206 32 128 192;
#X msg 672 259 12000;
#X obj 489 90 r latency-comp;
#X obj 444 115 pipe 300;
#X obj 213 186 - 400;
#X connect 0 0 8 0;
#X connect 0 0 23 0;
#X connect 2 0 1 0;
#X connect 3 0 1 0;
#X connect 4 0 1 0;
#X connect 5 0 1 0;
#X connect 6 0 7 0;
#X connect 6 1 2 0;
#X connect 6 2 38 0;
#X connect 8 0 6 0;
#X connect 8 0 14 0;
#X connect 8 0 15 0;
#X connect 8 0 16 0;
#X connect 8 0 17 0;
#X connect 8 1 6 1;
#X connect 8 1 14 1;
#X connect 8 1 15 1;
#X connect 8 1 16 1;
#X connect 8 1 17 1;
#X connect 8 2 9 0;
#X connect 9 0 10 0;
#X connect 10 0 11 0;
#X connect 11 0 7 3;
#X connect 11 0 13 0;
#X connect 12 0 19 0;
#X connect 14 0 7 0;
#X connect 14 1 3 0;
#X connect 14 2 38 0;
#X connect 15 0 7 0;
#X connect 15 1 4 0;
#X connect 15 2 38 0;
#X connect 16 0 7 0;
#X connect 16 1 5 0;
#X connect 16 2 38 0;
#X connect 17 0 7 0;
#X connect 17 2 38 0;
#X connect 19 0 7 1;
#X connect 20 0 7 2;
#X connect 22 0 24 0;
#X connect 23 0 37 0;
#X connect 24 0 30 0;
#X connect 24 0 26 0;
#X connect 24 1 31 0;
#X connect 24 1 25 0;
#X connect 24 2 32 0;
#X connect 24 2 25 0;
#X connect 24 3 33 0;
#X connect 24 3 25 0;
#X connect 24 4 34 0;
#X connect 24 4 25 0;
#X connect 25 0 21 0;
#X connect 26 0 21 0;
#X connect 28 0 27 1;
#X connect 29 0 35 0;
#X connect 29 0 28 0;
#X connect 30 0 27 0;
#X connect 31 0 27 0;
#X connect 32 0 27 0;
#X connect 33 0 27 0;
#X connect 34 0 27 0;
#X connect 35 0 27 2;
#X connect 36 0 37 1;
#X connect 37 0 22 0;
#X connect 38 0 20 0;
#X restore 533 359 pd DMX-airy-4T-grains;
#N canvas 1141 250 457 544 DMX-grains-drums 0;
#X obj 67 52 OSCroute /grains-drums-pos;
#X obj 112 77 r latency-comp;
#X obj 67 101 pipe 300;
#X obj 67 153 int;
#X obj 67 126 * 4;
#X obj 67 179 change;
#X obj 67 206 sel 0 8 16 24 32 35 40 48 56;
#X obj 67 280 t b;
#X obj 247 274 t b;
#X obj 247 210 mod 16;
#X obj 247 181 moses 56;
#X obj 307 210 mod 16;
#X obj 93 374 s dmx-dist;
#X obj 66 309 t b b;
#X obj 123 311 t b b;
#X obj 247 240 sel 4 11;
#X obj 307 240 sel 4 11 13;
#X msg 123 400 0 255 0;
#X msg 66 400 128 0 128;
#X obj 67 28 r grains;
#X msg 93 343 20;
#X msg 150 343 20;
#X obj 66 432 DMX-colour-goto 400;
#X obj 123 455 DMX-colour-goto 400;
#X connect 0 0 2 0;
#X connect 1 0 2 1;
#X connect 2 0 4 0;
#X connect 3 0 5 0;
#X connect 4 0 3 0;
#X connect 5 0 6 0;
#X connect 5 0 10 0;
#X connect 6 0 7 0;
#X connect 6 1 7 0;
#X connect 6 2 7 0;
#X connect 6 3 7 0;
#X connect 6 4 7 0;
#X connect 6 5 7 0;
#X connect 6 6 7 0;
#X connect 6 7 7 0;
#X connect 6 8 7 0;
#X connect 7 0 13 0;
#X connect 8 0 14 0;
#X connect 9 0 15 0;
#X connect 10 0 9 0;
#X connect 10 1 11 0;
#X connect 11 0 16 0;
#X connect 13 0 18 0;
#X connect 13 1 20 0;
#X connect 14 0 17 0;
#X connect 14 1 21 0;
#X connect 15 0 8 0;
#X connect 15 1 8 0;
#X connect 16 0 8 0;
#X connect 16 1 8 0;
#X connect 16 2 8 0;
#X connect 17 0 23 0;
#X connect 18 0 22 0;
#X connect 19 0 0 0;
#X connect 20 0 12 0;
#X connect 21 0 12 0;
#X restore 709 375 pd DMX-grains-drums;
#X obj 709 326 dumpOSC 5003;
#X obj 709 351 s grains;
#N canvas 555 205 538 569 DMX-grains-bass 1;
#X obj 87 75 r latency-comp;
#X obj 42 99 pipe 300;
#X obj 70 462 s dmx-dist;
#X obj 42 26 r grains;
#X obj 42 50 OSCroute /grains-bass;
#X msg 43 168 1;
#X msg 76 168 2;
#X msg 113 168 3;
#X msg 146 168 4;
#X obj 43 397 t a b;
#X obj 43 207 * 40;
#X obj 43 235 + 50;
#X obj 43 134 sel 24 25 26 27 28;
#X msg 199 170 1;
#X msg 232 170 2;
#X msg 269 170 3;
#X msg 302 170 4;
#X obj 199 209 * 40;
#X obj 199 136 sel 32 33 34 35 36 37;
#X msg 351 170 1;
#X msg 384 170 2;
#X msg 421 170 3;
#X obj 351 209 * 40;
#X obj 351 136 sel 40 41 42 43 44;
#X msg 484 170 5;
#X obj 43 346 pack f f f;
#X obj 43 262 t b b b;
#X msg 43 372 \$1 \$2 \$3;
#X obj 43 318 + 0;
#X obj 43 292 random 254;
#X obj 118 316 + 0;
#X obj 118 290 random 254;
#X obj 188 314 + 0;
#X obj 188 288 random 254;
#X msg 70 431 19;
#X msg 452 169 4;
#X obj 43 490 DMX-colour-goto 3500;
#X connect 0 0 1 1;
#X connect 1 0 12 0;
#X connect 1 0 18 0;
#X connect 1 0 23 0;
#X connect 3 0 4 0;
#X connect 4 0 1 0;
#X connect 5 0 10 0;
#X connect 6 0 10 0;
#X connect 7 0 10 0;
#X connect 8 0 10 0;
#X connect 9 0 36 0;
#X connect 9 1 34 0;
#X connect 10 0 11 0;
#X connect 11 0 26 0;
#X connect 12 0 5 0;
#X connect 12 1 8 0;
#X connect 12 2 6 0;
#X connect 12 3 7 0;
#X connect 12 4 5 0;
#X connect 13 0 17 0;
#X connect 14 0 17 0;
#X connect 15 0 17 0;
#X connect 16 0 17 0;
#X connect 17 0 11 0;
#X connect 18 0 16 0;
#X connect 18 1 15 0;
#X connect 18 2 16 0;
#X connect 18 3 14 0;
#X connect 18 4 13 0;
#X connect 18 5 14 0;
#X connect 19 0 22 0;
#X connect 20 0 22 0;
#X connect 21 0 22 0;
#X connect 22 0 11 0;
#X connect 23 0 20 0;
#X connect 23 1 21 0;
#X connect 23 2 35 0;
#X connect 23 3 19 0;
#X connect 23 4 24 0;
#X connect 24 0 22 0;
#X connect 25 0 27 0;
#X connect 26 0 29 0;
#X connect 26 1 31 0;
#X connect 26 2 33 0;
#X connect 27 0 9 0;
#X connect 28 0 25 0;
#X connect 29 0 28 0;
#X connect 30 0 25 1;
#X connect 31 0 30 0;
#X connect 32 0 25 2;
#X connect 33 0 32 0;
#X connect 34 0 2 0;
#X connect 35 0 22 0;
#X restore 709 398 pd DMX-grains-bass;
#X msg 136 450 350;
#X obj 85 230 r red2;
#X obj 195 230 r green2;
#X obj 305 230 r blue2;
#X obj 75 190 spigot;
#X obj 185 190 spigot;
#X obj 295 190 spigot;
#X obj 652 425 tgl 15 0 empty empty empty 17 7 0 10 -262144 -1 -1 1
1;
#X obj 386 102 r dmx-dist2;
#X obj 376 71 spigot;
#X obj 472 53 r idle;
#X obj 472 77 swap 1;
#X obj 472 99 -;
#X obj 131 116 r idle;
#X obj 131 140 swap 1;
#X obj 131 162 -;
#X obj 653 457 s idle;
#N canvas 621 161 427 438 start-up-sound 1;
#X obj 32 189 osc~ 440;
#X obj 32 398 dac~;
#X obj 32 164 line~;
#X msg 32 137 50 \, 233.082 550;
#X obj 32 113 t b b;
#X obj 243 267 vline~;
#X obj 32 313 *~;
#X obj 142 189 osc~ 440;
#X obj 142 164 line~;
#X msg 142 137 50 \, 130.813 550;
#X obj 32 259 clip~ -1 1;
#X obj 32 221 *~ 1.5;
#X obj 252 189 osc~ 440;
#X obj 252 164 line~;
#X msg 252 137 50 \, 261.626 550;
#X obj 32 3 dumpOSC 5004;
#X obj 32 29 OSCroute /idle;
#X obj 47 54 s idle;
#X obj 32 374 e_platereverb;
#X msg 107 351 dry 0.4;
#X msg 243 242 0 5 \, 0.2 10 5 \, 0 1100 700;
#X obj 107 327 loadbang;
#X obj 32 85 sel 0;
#X obj 169 29 vsl 15 128 0 127 0 0 empty empty empty 0 -9 0 10 -262144
-1 -1 0 1;
#X obj 137 26 bng 15 250 50 0 empty empty empty 17 7 0 10 -262144 -1
-1;
#X connect 0 0 11 0;
#X connect 2 0 0 0;
#X connect 3 0 2 0;
#X connect 4 0 3 0;
#X connect 4 0 9 0;
#X connect 4 0 14 0;
#X connect 4 1 20 0;
#X connect 5 0 6 1;
#X connect 6 0 18 0;
#X connect 6 0 18 1;
#X connect 7 0 6 0;
#X connect 8 0 7 0;
#X connect 9 0 8 0;
#X connect 10 0 6 0;
#X connect 11 0 10 0;
#X connect 12 0 6 0;
#X connect 13 0 12 0;
#X connect 14 0 13 0;
#X connect 15 0 16 0;
#X connect 16 0 17 0;
#X connect 16 0 22 0;
#X connect 18 0 1 0;
#X connect 18 1 1 1;
#X connect 19 0 18 2;
#X connect 20 0 5 0;
#X connect 21 0 19 0;
#X connect 22 0 4 0;
#X connect 24 0 4 0;
#X restore 761 486 pd start-up-sound;
#X connect 10 0 13 0;
#X connect 11 0 15 0;
#X connect 12 0 11 0;
#X connect 13 0 12 0;
#X connect 13 1 17 0;
#X connect 15 0 16 0;
#X connect 15 0 14 0;
#X connect 16 0 15 1;
#X connect 17 0 15 1;
#X connect 18 0 13 0;
#X connect 19 0 68 0;
#X connect 20 0 69 0;
#X connect 21 0 70 0;
#X connect 22 0 24 0;
#X connect 22 1 23 0;
#X connect 23 0 24 1;
#X connect 24 0 25 0;
#X connect 26 0 73 0;
#X connect 27 0 29 0;
#X connect 27 1 28 0;
#X connect 28 0 29 1;
#X connect 29 0 30 0;
#X connect 31 0 33 0;
#X connect 31 1 32 0;
#X connect 32 0 33 1;
#X connect 33 0 34 0;
#X connect 35 0 49 0;
#X connect 36 0 49 0;
#X connect 37 0 35 0;
#X connect 38 0 39 1;
#X connect 39 0 38 0;
#X connect 39 0 45 0;
#X connect 40 0 39 0;
#X connect 40 1 41 0;
#X connect 41 0 38 1;
#X connect 42 0 39 0;
#X connect 42 1 43 0;
#X connect 43 0 38 1;
#X connect 44 0 49 0;
#X connect 45 0 44 0;
#X connect 46 0 49 0;
#X connect 46 1 37 0;
#X connect 46 2 36 0;
#X connect 46 3 40 0;
#X connect 46 4 42 0;
#X connect 46 5 47 0;
#X connect 46 6 48 0;
#X connect 47 0 49 0;
#X connect 48 0 49 0;
#X connect 49 0 33 2;
#X connect 49 0 24 2;
#X connect 49 0 29 2;
#X connect 51 0 52 0;
#X connect 58 0 64 0;
#X connect 61 0 62 0;
#X connect 64 0 57 0;
#X connect 65 0 27 0;
#X connect 66 0 22 0;
#X connect 67 0 31 0;
#X connect 68 0 27 0;
#X connect 69 0 22 0;
#X connect 70 0 31 0;
#X connect 71 0 80 0;
#X connect 72 0 46 0;
#X connect 73 0 46 0;
#X connect 74 0 75 0;
#X connect 75 0 76 0;
#X connect 75 1 76 1;
#X connect 76 0 73 1;
#X connect 77 0 78 0;
#X connect 78 0 79 0;
#X connect 78 1 79 1;
#X connect 79 0 69 1;
#X connect 79 0 68 1;
#X connect 79 0 70 1;
