#N canvas 388 93 537 445 10;
#X declare -path abs;
#X declare -path abs/oscx;
#X declare -path abs/dmxControl;
#X declare -path DMX;
#X obj 217 90 dmxControl;
#N canvas 45 488 317 368 DMX-airy-drums 0;
#X obj 35 151 OSCroute /airy-kick /airy-snare;
#X obj 35 104 symbol;
#X obj 62 241 s dmx-dist;
#X obj 35 176 t b b;
#X obj 92 178 t b b;
#X obj 35 80 r airy-bass-drums;
#X msg 35 267 255 0 0;
#X msg 92 267 255 255 255;
#X obj 35 128 pipe s 300;
#X obj 92 104 r latency-comp;
#X msg 119 210 20;
#X msg 62 210 21;
#X obj 92 322 DMX-colour-goto 100;
#X obj 35 299 DMX-colour-goto 100;
#X obj 36 15 dumpOSC 5000;
#X obj 36 39 s airy-bass-drums;
#X connect 0 0 3 0;
#X connect 0 1 4 0;
#X connect 1 0 8 0;
#X connect 3 0 6 0;
#X connect 3 1 11 0;
#X connect 4 0 7 0;
#X connect 4 1 10 0;
#X connect 5 0 1 0;
#X connect 6 0 13 0;
#X connect 7 0 12 0;
#X connect 8 0 0 0;
#X connect 9 0 8 1;
#X connect 10 0 2 0;
#X connect 11 0 2 0;
#X connect 14 0 15 0;
#X restore 35 174 pd DMX-airy-drums;
#N canvas 469 405 356 373 DMX-airy-bass 0;
#X obj 30 25 r airy-bass-drums;
#X obj 30 212 int;
#X msg 30 256 \$1 \$1 \$1;
#X obj 171 322 s dmx-dist;
#X obj 30 191 m_scale 31 46 40 255;
#X obj 30 138 t f b;
#X obj 30 56 OSCroute /airy-bass /airy-bass-clip;
#X obj 240 131 sel 0 1;
#X obj 171 249 tgl 15 0 empty empty empty 17 7 0 10 -262144 -1 -1 0
1;
#X obj 171 269 sel 0 1;
#X obj 75 89 r latency-comp;
#X msg 171 296 9;
#X msg 204 297 10;
#X msg 30 234 255;
#X obj 30 278 DMX-colour-goto 600;
#X obj 171 179 list prepend;
#X obj 171 201 list trim;
#X msg 234 258 seq;
#X obj 171 224 route side seq;
#X msg 280 152 seq;
#X msg 240 153 side;
#X obj 30 113 pipe 350;
#X connect 0 0 6 0;
#X connect 1 0 13 0;
#X connect 2 0 14 0;
#X connect 4 0 1 0;
#X connect 5 0 4 0;
#X connect 5 1 15 0;
#X connect 6 0 21 0;
#X connect 6 1 7 0;
#X connect 7 0 20 0;
#X connect 7 1 19 0;
#X connect 8 0 9 0;
#X connect 9 0 11 0;
#X connect 9 1 12 0;
#X connect 10 0 21 1;
#X connect 11 0 3 0;
#X connect 12 0 3 0;
#X connect 13 0 2 0;
#X connect 15 0 16 0;
#X connect 16 0 18 0;
#X connect 17 0 3 0;
#X connect 18 0 8 0;
#X connect 18 1 17 0;
#X connect 19 0 15 1;
#X connect 20 0 15 1;
#X connect 21 0 5 0;
#X restore 35 195 pd DMX-airy-bass;
#N canvas 590 128 1045 452 DMX-master-fx 0;
#X obj 76 11 dumpOSC 5002;
#X obj 76 69 m_bpm2ms;
#X obj 204 270 s dmx-dist;
#X obj 49 322 metro;
#X obj 49 294 tgl 15 0 empty empty empty 17 7 0 10 -262144 -1 -1 0
1;
#X obj 76 93 / 2;
#X msg 130 370 0 0 0;
#X msg 49 359 255 255 255;
#X obj 49 397 DMX-colour-flash4 255 0 0 255 255 255 200;
#X msg 204 90 \$1 2500;
#X obj 204 114 line;
#X obj 204 164 int;
#X msg 234 245 18;
#X msg 293 245 all;
#X obj 204 189 change;
#X obj 204 138 * 6;
#X obj 204 216 sel 0 1 2 3 4;
#X obj 76 41 OSCroute /bpm /master-trem-effect /airy-beat-repeat;
#X obj 130 346 loadbang;
#X obj 630 213 s dmx-dist;
#X obj 543 156 metro;
#X obj 543 78 tgl 15 0 empty empty empty 17 7 0 10 -262144 -1 -1 0
1;
#X msg 622 348 0 0 0;
#X msg 630 188 all;
#X obj 622 325 loadbang;
#X obj 606 114 sel 1;
#X obj 570 133 / 4;
#X obj 543 315 pack f f f;
#X obj 543 270 max 0;
#X obj 543 293 min 255;
#X obj 593 270 max 0;
#X obj 593 293 min 255;
#X obj 643 270 max 0;
#X obj 643 293 min 255;
#X obj 585 184 - 5;
#X msg 606 137 255;
#X obj 543 184 f 255;
#X obj 543 209 t f f f;
#X obj 593 239 + 510;
#X obj 643 238 + 254;
#X msg 204 245 19;
#X msg 263 245 17;
#X obj 543 371 DMX-colour-flash4 255 0 0 255 255 255 60;
#X obj 177 68 t f f;
#X text 94 321 Strobe it!;
#X text 695 292 Strobe it \, but gradually change the destination colour
;
#X text 321 245 Fade the effect in across the room;
#X connect 0 0 17 0;
#X connect 1 0 5 0;
#X connect 1 0 26 0;
#X connect 3 0 7 0;
#X connect 4 0 3 0;
#X connect 5 0 3 1;
#X connect 6 0 8 1;
#X connect 7 0 8 0;
#X connect 9 0 10 0;
#X connect 10 0 15 0;
#X connect 11 0 14 0;
#X connect 12 0 2 0;
#X connect 13 0 2 0;
#X connect 14 0 16 0;
#X connect 15 0 11 0;
#X connect 16 0 40 0;
#X connect 16 1 40 0;
#X connect 16 2 12 0;
#X connect 16 3 41 0;
#X connect 16 4 13 0;
#X connect 17 0 1 0;
#X connect 17 1 43 0;
#X connect 17 2 21 0;
#X connect 18 0 6 0;
#X connect 20 0 36 0;
#X connect 20 0 23 0;
#X connect 21 0 20 0;
#X connect 21 0 25 0;
#X connect 22 0 42 1;
#X connect 23 0 19 0;
#X connect 24 0 22 0;
#X connect 25 0 35 0;
#X connect 26 0 20 1;
#X connect 27 0 42 0;
#X connect 28 0 29 0;
#X connect 29 0 27 0;
#X connect 30 0 31 0;
#X connect 31 0 27 1;
#X connect 32 0 33 0;
#X connect 33 0 27 2;
#X connect 34 0 36 1;
#X connect 35 0 36 1;
#X connect 36 0 34 0;
#X connect 36 0 37 0;
#X connect 37 0 28 0;
#X connect 37 1 38 0;
#X connect 37 2 39 0;
#X connect 38 0 30 0;
#X connect 39 0 32 0;
#X connect 40 0 2 0;
#X connect 41 0 2 0;
#X connect 43 0 4 0;
#X connect 43 1 9 0;
#X restore 35 278 pd DMX-master-fx;
#X obj 35 38 DMX-vis-6;
#N canvas 43 305 1295 662 DMX-control 0;
#X msg 767 85 1 2 3 4 5 6 7 8 9 10 11 12;
#X msg 767 131 1;
#X msg 767 180 2;
#X msg 767 227 3;
#X msg 767 273 4;
#X msg 767 322 5;
#X msg 767 371 6;
#X msg 767 420 7;
#X msg 767 467 8;
#X msg 987 91 1 2 7 8;
#X msg 987 140 3 4 5 6;
#X obj 722 107 dmxBus 0;
#X obj 767 62 t b;
#X obj 707 45 loadbang;
#X obj 1037 47 bng 15 250 50 0 empty empty empty 17 7 0 10 -262144
-1 -1;
#X obj 987 62 t b;
#X msg 987 187 1 2;
#X msg 987 233 3 4;
#X msg 987 282 5 6;
#X msg 987 331 7 8;
#X msg 987 380 1 8;
#X msg 987 427 1 2 7 8;
#X msg 987 473 1 2 3 6 7 8;
#X msg 987 522 4 5;
#X text 1017 522 Front 2;
#X text 1066 471 Back 6;
#X text 1042 427 Back 4;
#X text 1016 380 Back 2;
#X text 1016 330 Back-right 2;
#X text 1016 282 Front-right 2;
#X text 1016 233 Front-left 2;
#X text 1016 186 Back-left 2;
#X text 1036 140 Front;
#X text 1036 91 Back;
#X msg 987 572 1 2 3 6 7 8;
#X text 1067 572 Back 6;
#X text 845 24 Busses;
#X text 1168 27 Lamps;
#X obj 1152 319 loadbang;
#X obj 1152 343 bng 15 250 50 0 empty empty empty 17 7 0 10 -262144
-1 -1;
#X obj 1152 365 s DMX-init;
#X msg 767 514 1 2 3 4;
#X msg 767 561 5 6 7 8;
#X obj 12 285 r red;
#X obj 122 285 r green;
#X obj 242 285 r blue;
#X obj 122 454 t a b;
#X msg 150 478 0;
#X obj 122 523 pack f 0 f;
#X msg 122 559 \; green-\$3 \$1 \$2;
#X obj 383 137 r dmx-dist;
#X obj 12 454 t a b;
#X msg 40 478 0;
#X obj 12 523 pack f 0 f;
#X msg 12 559 \; red-\$3 \$1 \$2;
#X obj 242 454 t a b;
#X msg 270 478 0;
#X obj 242 523 pack f 0 f;
#X msg 242 559 \; blue-\$3 \$1 \$2;
#X obj 424 298 + 1;
#X msg 466 303 0;
#X obj 424 273 random 8;
#X obj 540 334 + 1;
#X obj 513 334 f;
#X obj 513 275 t a b;
#X msg 540 304 1;
#X obj 560 274 t a b;
#X msg 587 303 -1;
#X obj 513 379 + 1;
#X obj 513 357 mod 8;
#X obj 383 248 route float random all seq seq-rev back-4 front-4;
#X msg 624 271 11;
#X msg 659 271 12;
#X obj 383 429 i;
#X obj 12 385 spigot;
#X obj 122 385 spigot;
#X obj 242 385 spigot;
#X obj 383 166 spigot;
#X obj 455 96 r idle;
#X obj 455 120 swap 1;
#X obj 455 142 -;
#X obj 45 199 r idle;
#X obj 45 222 swap 1;
#X obj 45 244 -;
#X text 89 220 Ignore all other lighting if we're in idle mode;
#X obj 22 425 r red-idle;
#X obj 132 425 r green-idle;
#X obj 252 425 r blue-idle;
#X obj 393 197 r dmx-dist-idle;
#X text 23 307 ^;
#X text 143 307 ^;
#X text 263 307 ^;
#X text 313 518 Third value in these packs dictates which DMX bus the
corresponding colour command goes to;
#X text 438 225 Various DMX bus configurations;
#X obj 942 114 dmxBus 11;
#X obj 722 154 dmxBus 1;
#X obj 722 204 dmxBus 2;
#X obj 722 249 dmxBus 3;
#X obj 722 296 dmxBus 4;
#X obj 722 347 dmxBus 5;
#X obj 722 394 dmxBus 6;
#X obj 722 444 dmxBus 7;
#X obj 722 489 dmxBus 8;
#X obj 942 164 dmxBus 12;
#X obj 942 209 dmxBus 13;
#X obj 942 256 dmxBus 14;
#X obj 942 307 dmxBus 15;
#X obj 942 354 dmxBus 16;
#X obj 942 404 dmxBus 17;
#X obj 942 449 dmxBus 18;
#X obj 942 496 dmxBus 19;
#X obj 942 546 dmxBus 20;
#X obj 942 596 dmxBus 21;
#X obj 722 538 dmxBus 9;
#X obj 722 583 dmxBus 10;
#X obj 1152 158 dmxLamp 6 31;
#X obj 1152 58 dmxLamp 1 1;
#X obj 1152 98 dmxLamp 3 13;
#X obj 1152 78 dmxLamp 2 7;
#X obj 1152 118 dmxLamp 4 19;
#X obj 1152 138 dmxLamp 5 25;
#X obj 1152 178 dmxLamp 7 37;
#X obj 1152 198 dmxLamp 8 43;
#X obj 1152 218 dmxLamp 9 49;
#X obj 1152 238 dmxLamp 10 55;
#X obj 1152 258 dmxLamp 11 61;
#X obj 1152 278 dmxLamp 12 67;
#X text 21 342 lighting sequence patches;
#X text 21 322 Value and ramp time pairs from the various;
#X text 299 478 Default to zero in case we receive don't receive a
ramp time;
#X text 333 565 Send the value and ramp time pairs to the relevant
busses;
#X connect 0 0 11 1;
#X connect 1 0 95 1;
#X connect 2 0 96 1;
#X connect 3 0 97 1;
#X connect 4 0 98 1;
#X connect 5 0 99 1;
#X connect 6 0 100 1;
#X connect 7 0 101 1;
#X connect 8 0 102 1;
#X connect 9 0 94 1;
#X connect 10 0 103 1;
#X connect 12 0 0 0;
#X connect 12 0 1 0;
#X connect 12 0 2 0;
#X connect 12 0 3 0;
#X connect 12 0 4 0;
#X connect 12 0 5 0;
#X connect 12 0 6 0;
#X connect 12 0 7 0;
#X connect 12 0 8 0;
#X connect 12 0 41 0;
#X connect 12 0 42 0;
#X connect 13 0 12 0;
#X connect 13 0 15 0;
#X connect 14 0 12 0;
#X connect 14 0 15 0;
#X connect 15 0 9 0;
#X connect 15 0 10 0;
#X connect 15 0 16 0;
#X connect 15 0 17 0;
#X connect 15 0 18 0;
#X connect 15 0 19 0;
#X connect 15 0 20 0;
#X connect 15 0 21 0;
#X connect 15 0 22 0;
#X connect 15 0 23 0;
#X connect 15 0 34 0;
#X connect 16 0 104 1;
#X connect 17 0 105 1;
#X connect 18 0 106 1;
#X connect 19 0 107 1;
#X connect 20 0 108 1;
#X connect 21 0 109 1;
#X connect 22 0 110 1;
#X connect 23 0 111 1;
#X connect 34 0 112 1;
#X connect 38 0 39 0;
#X connect 39 0 40 0;
#X connect 41 0 113 1;
#X connect 42 0 114 1;
#X connect 43 0 74 0;
#X connect 44 0 75 0;
#X connect 45 0 76 0;
#X connect 46 0 48 0;
#X connect 46 1 47 0;
#X connect 47 0 48 1;
#X connect 48 0 49 0;
#X connect 50 0 77 0;
#X connect 51 0 53 0;
#X connect 51 1 52 0;
#X connect 52 0 53 1;
#X connect 53 0 54 0;
#X connect 55 0 57 0;
#X connect 55 1 56 0;
#X connect 56 0 57 1;
#X connect 57 0 58 0;
#X connect 59 0 73 0;
#X connect 60 0 73 0;
#X connect 61 0 59 0;
#X connect 62 0 63 1;
#X connect 63 0 62 0;
#X connect 63 0 69 0;
#X connect 64 0 63 0;
#X connect 64 1 65 0;
#X connect 65 0 62 1;
#X connect 66 0 63 0;
#X connect 66 1 67 0;
#X connect 67 0 62 1;
#X connect 68 0 73 0;
#X connect 69 0 68 0;
#X connect 70 0 73 0;
#X connect 70 1 61 0;
#X connect 70 2 60 0;
#X connect 70 3 64 0;
#X connect 70 4 66 0;
#X connect 70 5 71 0;
#X connect 70 6 72 0;
#X connect 71 0 73 0;
#X connect 72 0 73 0;
#X connect 73 0 57 2;
#X connect 73 0 48 2;
#X connect 73 0 53 2;
#X connect 74 0 51 0;
#X connect 75 0 46 0;
#X connect 76 0 55 0;
#X connect 77 0 70 0;
#X connect 78 0 79 0;
#X connect 79 0 80 0;
#X connect 79 1 80 1;
#X connect 80 0 77 1;
#X connect 81 0 82 0;
#X connect 82 0 83 0;
#X connect 82 1 83 1;
#X connect 83 0 75 1;
#X connect 83 0 74 1;
#X connect 83 0 76 1;
#X connect 85 0 51 0;
#X connect 86 0 46 0;
#X connect 87 0 55 0;
#X connect 88 0 70 0;
#X restore 35 61 pd DMX-control;
#X obj 35 392 s latency-comp;
#X obj 35 318 loadbang;
#N canvas 419 202 854 392 DMX-airy-4T-grains 0;
#X obj 24 25 dumpOSC 5001;
#X obj 96 221 s dmx-dist;
#X msg 96 196 13;
#X msg 126 196 14;
#X msg 156 196 15;
#X msg 186 196 16;
#X obj 24 71 grain-light-flash 0;
#X obj 24 299 DMX-colour-flash4 255 0 0 255 255 255 500;
#X obj 24 49 OSCroute /grain-sync /grain-start /grains-vol;
#X obj 256 83 * 2;
#X obj 256 103 max 0;
#X obj 256 123 min 1;
#X obj 105 251 loadbang;
#X msg 105 273 0 0 0;
#X obj 186 275 max 150;
#X obj 657 226 s dmx-dist;
#X obj 474 140 t f b;
#X obj 474 68 OSCroute /airy-4t-note;
#X obj 474 170 sel 72 74 77 79 81;
#X msg 657 202 all;
#X msg 691 201 seq;
#X obj 474 352 DMX-colour-flash4 3000;
#X msg 715 318 255 255 255;
#X obj 715 294 loadbang;
#X msg 474 257 0 0 128;
#X msg 536 256 0 128 32;
#X msg 607 256 32 64 0;
#X msg 677 256 0 128 32;
#X msg 743 256 32 128 192;
#X msg 796 318 12000;
#X obj 519 90 r latency-comp;
#X obj 474 115 pipe 300;
#X obj 186 253 - 400;
#X obj 44 93 grain-light-flash 1;
#X obj 64 113 grain-light-flash 2;
#X obj 84 133 grain-light-flash 3;
#X obj 104 153 grain-light-flash 4;
#X text 216 193 Each grain represented by a different bus;
#X connect 0 0 8 0;
#X connect 0 0 17 0;
#X connect 2 0 1 0;
#X connect 3 0 1 0;
#X connect 4 0 1 0;
#X connect 5 0 1 0;
#X connect 6 0 7 0;
#X connect 6 1 2 0;
#X connect 6 2 32 0;
#X connect 8 0 6 0;
#X connect 8 0 33 0;
#X connect 8 0 34 0;
#X connect 8 0 35 0;
#X connect 8 0 36 0;
#X connect 8 1 6 1;
#X connect 8 1 33 1;
#X connect 8 1 34 1;
#X connect 8 1 35 1;
#X connect 8 1 36 1;
#X connect 8 2 9 0;
#X connect 9 0 10 0;
#X connect 10 0 11 0;
#X connect 11 0 7 3;
#X connect 12 0 13 0;
#X connect 13 0 7 1;
#X connect 14 0 7 2;
#X connect 16 0 18 0;
#X connect 17 0 31 0;
#X connect 18 0 24 0;
#X connect 18 0 20 0;
#X connect 18 1 25 0;
#X connect 18 1 19 0;
#X connect 18 2 26 0;
#X connect 18 2 19 0;
#X connect 18 3 27 0;
#X connect 18 3 19 0;
#X connect 18 4 28 0;
#X connect 18 4 19 0;
#X connect 19 0 15 0;
#X connect 20 0 15 0;
#X connect 22 0 21 1;
#X connect 23 0 29 0;
#X connect 23 0 22 0;
#X connect 24 0 21 0;
#X connect 25 0 21 0;
#X connect 26 0 21 0;
#X connect 27 0 21 0;
#X connect 28 0 21 0;
#X connect 29 0 21 2;
#X connect 30 0 31 1;
#X connect 31 0 16 0;
#X connect 32 0 14 0;
#X connect 33 0 7 0;
#X connect 33 1 3 0;
#X connect 33 2 32 0;
#X connect 34 0 7 0;
#X connect 34 1 4 0;
#X connect 34 2 32 0;
#X connect 35 0 7 0;
#X connect 35 1 5 0;
#X connect 35 2 32 0;
#X connect 36 0 7 0;
#X connect 36 2 32 0;
#X restore 35 153 pd DMX-airy-4T-grains;
#N canvas 882 200 456 566 DMX-grains-drums 0;
#X obj 41 49 OSCroute /grains-drums-pos;
#X obj 86 74 r latency-comp;
#X obj 41 98 pipe 300;
#X obj 41 150 int;
#X obj 41 123 * 4;
#X obj 41 176 change;
#X obj 41 203 sel 0 8 16 24 32 35 40 48 56;
#X obj 41 337 t b;
#X obj 221 331 t b;
#X obj 221 267 mod 16;
#X obj 221 238 moses 56;
#X obj 281 267 mod 16;
#X obj 68 431 s dmx-dist;
#X obj 41 366 t b b;
#X obj 98 368 t b b;
#X obj 221 297 sel 4 11;
#X obj 281 297 sel 4 11 13;
#X msg 98 457 0 255 0;
#X msg 41 457 128 0 128;
#X obj 41 25 r grains;
#X msg 68 400 20;
#X msg 125 400 20;
#X obj 41 489 DMX-colour-goto 400;
#X obj 98 512 DMX-colour-goto 400;
#X text 71 142 Didn't have MIDI for this instrument so had to mimic
the drum pattern using the sync-time from Live;
#X text 221 203 Kicks;
#X text 281 237 Rim-clicks;
#X obj 282 23 dumpOSC 5003;
#X obj 282 48 s grains;
#X connect 0 0 2 0;
#X connect 1 0 2 1;
#X connect 2 0 4 0;
#X connect 3 0 5 0;
#X connect 4 0 3 0;
#X connect 5 0 6 0;
#X connect 5 0 10 0;
#X connect 6 0 7 0;
#X connect 6 1 7 0;
#X connect 6 2 7 0;
#X connect 6 3 7 0;
#X connect 6 4 7 0;
#X connect 6 5 7 0;
#X connect 6 6 7 0;
#X connect 6 7 7 0;
#X connect 6 8 7 0;
#X connect 7 0 13 0;
#X connect 8 0 14 0;
#X connect 9 0 15 0;
#X connect 10 0 9 0;
#X connect 10 1 11 0;
#X connect 11 0 16 0;
#X connect 13 0 18 0;
#X connect 13 1 20 0;
#X connect 14 0 17 0;
#X connect 14 1 21 0;
#X connect 15 0 8 0;
#X connect 15 1 8 0;
#X connect 16 0 8 0;
#X connect 16 1 8 0;
#X connect 16 2 8 0;
#X connect 17 0 23 0;
#X connect 18 0 22 0;
#X connect 19 0 0 0;
#X connect 20 0 12 0;
#X connect 21 0 12 0;
#X connect 27 0 28 0;
#X restore 35 222 pd DMX-grains-drums;
#N canvas 555 205 538 569 DMX-grains-bass 0;
#X obj 87 75 r latency-comp;
#X obj 42 99 pipe 300;
#X obj 70 462 s dmx-dist;
#X obj 42 26 r grains;
#X obj 42 50 OSCroute /grains-bass;
#X msg 43 168 1;
#X msg 76 168 2;
#X msg 113 168 3;
#X msg 146 168 4;
#X obj 43 397 t a b;
#X obj 43 207 * 40;
#X obj 43 235 + 50;
#X obj 43 134 sel 24 25 26 27 28;
#X msg 199 170 1;
#X msg 232 170 2;
#X msg 269 170 3;
#X msg 302 170 4;
#X obj 199 209 * 40;
#X obj 199 136 sel 32 33 34 35 36 37;
#X msg 351 170 1;
#X msg 384 170 2;
#X msg 421 170 3;
#X obj 351 209 * 40;
#X obj 351 136 sel 40 41 42 43 44;
#X msg 484 170 5;
#X obj 43 346 pack f f f;
#X obj 43 262 t b b b;
#X msg 43 372 \$1 \$2 \$3;
#X obj 43 318 + 0;
#X obj 43 292 random 254;
#X obj 118 316 + 0;
#X obj 118 290 random 254;
#X obj 188 314 + 0;
#X obj 188 288 random 254;
#X msg 70 431 19;
#X msg 452 169 4;
#X obj 43 490 DMX-colour-goto 3500;
#X connect 0 0 1 1;
#X connect 1 0 12 0;
#X connect 1 0 18 0;
#X connect 1 0 23 0;
#X connect 3 0 4 0;
#X connect 4 0 1 0;
#X connect 5 0 10 0;
#X connect 6 0 10 0;
#X connect 7 0 10 0;
#X connect 8 0 10 0;
#X connect 9 0 36 0;
#X connect 9 1 34 0;
#X connect 10 0 11 0;
#X connect 11 0 26 0;
#X connect 12 0 5 0;
#X connect 12 1 8 0;
#X connect 12 2 6 0;
#X connect 12 3 7 0;
#X connect 12 4 5 0;
#X connect 13 0 17 0;
#X connect 14 0 17 0;
#X connect 15 0 17 0;
#X connect 16 0 17 0;
#X connect 17 0 11 0;
#X connect 18 0 16 0;
#X connect 18 1 15 0;
#X connect 18 2 16 0;
#X connect 18 3 14 0;
#X connect 18 4 13 0;
#X connect 18 5 14 0;
#X connect 19 0 22 0;
#X connect 20 0 22 0;
#X connect 21 0 22 0;
#X connect 22 0 11 0;
#X connect 23 0 20 0;
#X connect 23 1 21 0;
#X connect 23 2 35 0;
#X connect 23 3 19 0;
#X connect 23 4 24 0;
#X connect 24 0 22 0;
#X connect 25 0 27 0;
#X connect 26 0 29 0;
#X connect 26 1 31 0;
#X connect 26 2 33 0;
#X connect 27 0 9 0;
#X connect 28 0 25 0;
#X connect 29 0 28 0;
#X connect 30 0 25 1;
#X connect 31 0 30 0;
#X connect 32 0 25 2;
#X connect 33 0 32 0;
#X connect 34 0 2 0;
#X connect 35 0 22 0;
#X restore 35 243 pd DMX-grains-bass;
#X msg 35 355 350;
#N canvas 621 161 501 430 start-up-sound 0;
#X obj 32 189 osc~ 440;
#X obj 32 398 dac~;
#X obj 32 164 line~;
#X msg 32 137 50 \, 233.082 550;
#X obj 32 113 t b b;
#X obj 243 267 vline~;
#X obj 32 313 *~;
#X obj 142 189 osc~ 440;
#X obj 142 164 line~;
#X msg 142 137 50 \, 130.813 550;
#X obj 32 259 clip~ -1 1;
#X obj 32 221 *~ 1.5;
#X obj 252 189 osc~ 440;
#X obj 252 164 line~;
#X msg 252 137 50 \, 261.626 550;
#X obj 32 3 dumpOSC 5004;
#X obj 32 29 OSCroute /idle;
#X obj 47 54 s idle;
#X obj 32 374 e_platereverb;
#X msg 107 351 dry 0.4;
#X msg 243 242 0 5 \, 0.2 10 5 \, 0 1100 700;
#X obj 107 327 loadbang;
#X obj 32 85 sel 0;
#X text 77 80 When we come out of idle mode i.e. someone has connected
to the installation \, play a little start-up sound;
#X connect 0 0 11 0;
#X connect 2 0 0 0;
#X connect 3 0 2 0;
#X connect 4 0 3 0;
#X connect 4 0 9 0;
#X connect 4 0 14 0;
#X connect 4 1 20 0;
#X connect 5 0 6 1;
#X connect 6 0 18 0;
#X connect 6 0 18 1;
#X connect 7 0 6 0;
#X connect 8 0 7 0;
#X connect 9 0 8 0;
#X connect 10 0 6 0;
#X connect 11 0 10 0;
#X connect 12 0 6 0;
#X connect 13 0 12 0;
#X connect 14 0 13 0;
#X connect 15 0 16 0;
#X connect 16 0 17 0;
#X connect 16 0 22 0;
#X connect 18 0 1 0;
#X connect 18 1 1 1;
#X connect 19 0 18 2;
#X connect 20 0 5 0;
#X connect 21 0 19 0;
#X connect 22 0 4 0;
#X restore 35 95 pd start-up-sound;
#N canvas 0 22 231 135 init 0;
#X obj 18 40 declare -path abs;
#X obj 18 60 declare -path abs/oscx;
#X obj 18 80 declare -path abs/dmxControl;
#X obj 18 20 declare -path DMX;
#X restore 35 15 pd init;
#N canvas 141 411 220 538 DMX-idling 0;
#X obj 32 349 pack f f f;
#X obj 32 195 t b b b;
#X msg 32 375 \$1 \$2 \$3;
#X obj 32 47 tgl 15 0 empty empty empty 17 7 0 10 -262144 -1 -1 0 1
;
#X obj 32 404 t a b;
#X msg 59 438 seq;
#X obj 32 498 DMX-colour-goto3 5000;
#X obj 32 69 metro 1000;
#X obj 32 93 f;
#X obj 63 92 + 1;
#X obj 32 116 mod 8;
#X obj 32 143 sel 0;
#X msg 59 167 bang;
#X obj 32 220 random 6;
#X obj 32 245 sel 0 1 2 3 4 5;
#X msg 32 274 255 0 0;
#X msg 42 294 0 255 0;
#X msg 52 314 0 0 255;
#X msg 102 274 255 255 0;
#X msg 112 294 255 0 255;
#X msg 123 314 0 0 255;
#X obj 32 20 r idle;
#X obj 59 469 s dmx-dist-idle;
#X connect 0 0 2 0;
#X connect 1 0 13 0;
#X connect 2 0 4 0;
#X connect 3 0 7 0;
#X connect 4 0 6 0;
#X connect 4 1 5 0;
#X connect 5 0 22 0;
#X connect 7 0 8 0;
#X connect 8 0 9 0;
#X connect 8 0 10 0;
#X connect 9 0 8 1;
#X connect 10 0 11 0;
#X connect 11 0 1 0;
#X connect 11 1 12 0;
#X connect 12 0 0 0;
#X connect 13 0 14 0;
#X connect 14 0 15 0;
#X connect 14 1 16 0;
#X connect 14 2 17 0;
#X connect 14 3 18 0;
#X connect 14 4 19 0;
#X connect 14 5 20 0;
#X connect 15 0 0 0;
#X connect 16 0 0 0;
#X connect 17 0 0 0;
#X connect 18 0 0 0;
#X connect 19 0 0 0;
#X connect 20 0 0 0;
#X connect 21 0 3 0;
#X restore 35 116 pd DMX-idling;
#X text 66 343 Because we're using a buffer size of 2048 in Live (for
performance reasons) \, we need to delay all of the lighting commands
;
#X text 207 49 Reactify and Owen Hindley 2014;
#X text 207 13 DMX control patch for Dynamics interactive sound insatllation
;
#X connect 7 0 11 0;
#X connect 11 0 6 0;
