#N canvas 557 344 663 586 10;
#X obj 37 291 s \$1-msgs;
#X obj 427 165 s \$1-list;
#X obj 422 220 t b f;
#X obj 37 367 dmxLampGate \$1 3;
#X obj 37 427 dmxLampGate \$1 6;
#X obj 37 347 dmxLampGate \$1 2;
#X obj 37 387 dmxLampGate \$1 4;
#X obj 37 407 dmxLampGate \$1 5;
#X obj 37 447 dmxLampGate \$1 7;
#X obj 37 467 dmxLampGate \$1 8;
#X obj 37 487 dmxLampGate \$1 9;
#X obj 37 507 dmxLampGate \$1 10;
#X obj 37 527 dmxLampGate \$1 11;
#X obj 37 547 dmxLampGate \$1 12;
#X obj 37 327 dmxLampGate \$1 1;
#N canvas 0 22 450 300 gate 0;
#X obj 190 122 unpack f;
#X obj 209 166 f;
#X obj 190 143 t f f b;
#X obj 190 186 !=;
#X obj 145 207 spigot 1;
#X obj 145 100 t a a;
#X obj 145 71 inlet;
#X obj 145 238 outlet;
#X text 199 60 Only lets new values through;
#X text 199 74 Sort of like a [change];
#X connect 0 0 2 0;
#X connect 1 0 3 1;
#X connect 2 0 3 0;
#X connect 2 1 1 1;
#X connect 2 2 1 0;
#X connect 3 0 4 1;
#X connect 4 0 7 0;
#X connect 5 0 4 0;
#X connect 5 1 0 0;
#X connect 6 0 5 0;
#X restore 290 70 pd gate;
#N canvas 0 22 450 300 gate 0;
#X obj 200 132 unpack f;
#X obj 219 176 f;
#X obj 200 153 t f f b;
#X obj 200 196 !=;
#X obj 155 217 spigot 1;
#X obj 155 110 t a a;
#X obj 155 81 inlet;
#X obj 155 248 outlet;
#X text 209 70 Only lets new values through;
#X text 209 84 Sort of like a [change];
#X connect 0 0 2 0;
#X connect 1 0 3 1;
#X connect 2 0 3 0;
#X connect 2 1 1 1;
#X connect 2 2 1 0;
#X connect 3 0 4 1;
#X connect 4 0 7 0;
#X connect 5 0 4 0;
#X connect 5 1 0 0;
#X connect 6 0 5 0;
#X restore 162 71 pd gate;
#N canvas 0 22 450 300 gate 0;
#X obj 210 142 unpack f;
#X obj 229 186 f;
#X obj 210 163 t f f b;
#X obj 210 206 !=;
#X obj 165 227 spigot 1;
#X obj 165 120 t a a;
#X obj 165 91 inlet;
#X obj 165 258 outlet;
#X text 219 80 Only lets new values through;
#X text 219 94 Sort of like a [change];
#X connect 0 0 2 0;
#X connect 1 0 3 1;
#X connect 2 0 3 0;
#X connect 2 1 1 1;
#X connect 2 2 1 0;
#X connect 3 0 4 1;
#X connect 4 0 7 0;
#X connect 5 0 4 0;
#X connect 5 1 0 0;
#X connect 6 0 5 0;
#X restore 37 73 pd gate;
#X floatatom 48 50 5 0 0 0 - - -;
#X floatatom 178 48 5 0 0 0 - - -;
#X floatatom 308 48 5 0 0 0 - - -;
#X obj 37 21 r red-\$1;
#X obj 422 197 inlet shutter;
#X obj 427 143 inlet list;
#X obj 162 21 r green-\$1;
#X obj 290 21 r blue-\$1;
#X obj 162 121 t b l;
#X obj 290 161 t b l;
#X obj 37 263 pack f f f f f f 255;
#X obj 189 145 unpack f f;
#X obj 317 185 unpack f f;
#X connect 2 0 28 0;
#X connect 2 1 28 3;
#X connect 15 0 27 0;
#X connect 16 0 26 0;
#X connect 17 0 28 0;
#X connect 18 0 17 0;
#X connect 19 0 16 0;
#X connect 20 0 15 0;
#X connect 21 0 17 0;
#X connect 22 0 2 0;
#X connect 23 0 1 0;
#X connect 24 0 16 0;
#X connect 25 0 15 0;
#X connect 26 0 28 0;
#X connect 26 1 29 0;
#X connect 27 0 28 0;
#X connect 27 1 30 0;
#X connect 28 0 0 0;
#X connect 29 0 28 2;
#X connect 29 1 28 3;
#X connect 30 0 28 4;
#X connect 30 1 28 5;
