#N canvas 764 112 472 367 10;
#X obj 378 64 inlet list;
#X obj 378 138 u_listdrip;
#X msg 405 113 0;
#X obj 378 86 t a b;
#X obj 45 73 pack f f f;
#X obj 45 8 inlet red;
#X obj 145 8 inlet green;
#X obj 145 31 t b f;
#X obj 255 8 inlet green;
#X obj 255 31 t b f;
#X obj 145 275 spigot;
#X obj 178 226 sel 1;
#X msg 178 250 1;
#X obj 145 305 s 2-lamp;
#X obj 178 205 == 2;
#X obj 245 275 spigot;
#X obj 278 226 sel 1;
#X msg 278 250 1;
#X obj 345 275 spigot;
#X obj 378 226 sel 1;
#X msg 378 250 1;
#X obj 278 205 == 3;
#X obj 378 205 == 4;
#X obj 245 305 s 3-lamp;
#X obj 345 305 s 4-lamp;
#X obj 40 204 dmxBusGate;
#X connect 0 0 3 0;
#X connect 1 0 14 0;
#X connect 1 0 21 0;
#X connect 1 0 22 0;
#X connect 2 0 10 1;
#X connect 2 0 15 1;
#X connect 2 0 18 1;
#X connect 3 0 1 0;
#X connect 3 1 2 0;
#X connect 4 0 10 0;
#X connect 4 0 15 0;
#X connect 4 0 18 0;
#X connect 5 0 4 0;
#X connect 6 0 7 0;
#X connect 7 0 4 0;
#X connect 7 1 4 1;
#X connect 8 0 9 0;
#X connect 9 0 4 0;
#X connect 9 1 4 2;
#X connect 10 0 13 0;
#X connect 11 0 12 0;
#X connect 12 0 10 1;
#X connect 14 0 11 0;
#X connect 15 0 23 0;
#X connect 16 0 17 0;
#X connect 17 0 15 1;
#X connect 18 0 24 0;
#X connect 19 0 20 0;
#X connect 20 0 18 1;
#X connect 21 0 16 0;
#X connect 22 0 19 0;
