#N canvas 690 107 750 707 10;
#X obj 50 354 s dmx-control;
#X obj 50 330 pack 0 0 0;
#X floatatom 107 297 5 0 0 0 - - -;
#X floatatom 78 249 5 0 0 0 - - -;
#X floatatom 50 200 5 0 0 0 - - -;
#X obj 434 45 dmxControl;
#X floatatom 48 445 5 0 0 0 - - -;
#X floatatom 138 446 5 0 0 0 - - -;
#X floatatom 238 446 5 0 0 0 - - -;
#X text 69 94 1-6 from baseChannel);
#X text 51 38 Creation arguments:;
#X text 51 58 1: Base Channel (starting channel to separate lamps)
;
#X text 51 78 2: Control Channel (parameter to change \,;
#X text 49 177 Value (0 -255);
#X text 77 226 Base Channel;
#X text 104 276 Control Channel;
#X text 46 417 Switch;
#X text 136 417 Red;
#X text 236 417 Green;
#X obj 48 491 dmxSend 1 1;
#X obj 138 491 dmxSend 1 2;
#X obj 238 491 dmxSend 1 3;
#X obj 169 195 unpack f f f;
#X msg 161 133 255 1 1;
#X msg 175 153 255 1 2;
#X msg 229 132 255 1 1;
#X msg 243 152 255 1 2;
#X connect 1 0 0 0;
#X connect 2 0 1 2;
#X connect 3 0 1 1;
#X connect 4 0 1 0;
#X connect 6 0 19 0;
#X connect 7 0 20 0;
#X connect 8 0 21 0;
#X connect 22 0 1 0;
#X connect 22 1 1 1;
#X connect 22 2 1 2;
#X connect 23 0 22 0;
#X connect 24 0 22 0;
