#N canvas 525 94 649 413 10;
#X obj 400 76 list-replace;
#N canvas 612 382 341 328 list-creation 0;
#X obj 118 -15 t b b b;
#X obj 137 198 list append;
#X msg 236 81 231;
#X obj 137 85 until;
#X msg 137 119 0;
#X msg 38 82 126 6 1 2;
#X obj 137 235 outlet;
#X obj 118 -42 loadbang;
#X msg 137 53 513;
#X obj 234 215 lister;
#X connect 0 0 5 0;
#X connect 0 1 8 0;
#X connect 0 2 2 0;
#X connect 1 0 6 0;
#X connect 1 0 9 0;
#X connect 2 0 1 0;
#X connect 3 0 4 0;
#X connect 4 0 1 0;
#X connect 5 0 1 0;
#X connect 7 0 0 0;
#X connect 8 0 3 0;
#X connect 9 0 1 1;
#X restore 492 31 pd list-creation;
#X obj 400 6 r value;
#X obj 434 29 r index;
#X obj 400 112 resample 25;
#X text 411 132 DMX steam is at 40 Hz;
#X text 128 257 Activate dmx sends:;
#X obj 251 256 tgl 15 0 empty empty empty 17 7 0 10 -262144 -1 -1 0
1;
#X obj 322 193 comport;
#X msg 322 121 ports;
#X msg 322 168 open \$1;
#X obj 134 210 hradio 15 1 0 8 empty empty empty 0 -8 0 10 -262144
-1 -1 0;
#X obj 361 218 route ports;
#X obj 361 239 print Ports;
#X text 136 224 0;
#X text 167 224 2;
#X text 196 224 4;
#X text 151 224 1;
#X text 182 224 3;
#X text 211 224 5;
#X text 226 224 6;
#X text 242 224 7;
#X text 133 188 OPEN PORT;
#X obj 134 152 bng 20 250 50 0 empty empty empty 17 7 0 10 -262144
-1 -1;
#X text 162 155 PRINT PORTS;
#X obj 177 371 s index;
#X obj 120 370 s value;
#X obj 120 324 r dmx-control;
#X obj 400 156 spigot 0;
#X obj 120 347 unpack f f;
#X obj 434 53 + 4;
#X obj 503 93 lister;
#X obj 342 291 r master-on;
#X connect 0 0 4 0;
#X connect 0 0 31 0;
#X connect 1 0 0 2;
#X connect 2 0 0 0;
#X connect 3 0 30 0;
#X connect 4 0 28 0;
#X connect 7 0 28 1;
#X connect 8 1 12 0;
#X connect 9 0 8 0;
#X connect 10 0 8 0;
#X connect 11 0 10 0;
#X connect 12 0 13 0;
#X connect 23 0 9 0;
#X connect 27 0 29 0;
#X connect 28 0 8 0;
#X connect 29 0 26 0;
#X connect 29 1 25 0;
#X connect 30 0 0 1;
#X connect 31 0 0 2;
#X connect 32 0 7 0;
#X coords 0 -1 1 1 200 205 1 100 100;
