#N canvas 799 131 455 409 10;
#X obj 99 139 max 0;
#X obj 99 179 - 1;
#X obj 99 199 abs;
#X obj 99 159 min 2;
#X obj 157 66 loadbang;
#X obj 157 88 \$1;
#X obj 99 279 s \$1-fader;
#X obj 157 117 - 2;
#X obj 182 117 + 0;
#X obj 207 117 - 1;
#X obj 99 229 swap 1;
#X obj 99 249 -;
#X obj 99 41 r \$2-faderSwap;
#X connect 0 0 3 0;
#X connect 1 0 2 0;
#X connect 2 0 10 0;
#X connect 3 0 1 0;
#X connect 4 0 5 0;
#X connect 5 0 7 0;
#X connect 5 0 8 0;
#X connect 5 0 9 0;
#X connect 7 0 0 1;
#X connect 8 0 3 1;
#X connect 9 0 1 1;
#X connect 10 0 11 0;
#X connect 10 1 11 1;
#X connect 11 0 6 0;
#X connect 12 0 0 0;
