#N canvas 799 131 439 450 10;
#X obj 99 139 max 0;
#X obj 99 179 - 1;
#X obj 99 199 abs;
#X obj 99 159 min 2;
#X obj 157 66 loadbang;
#X obj 157 88 \$1;
#X obj 99 389 s \$1-fader;
#X obj 99 41 r \$2-fader;
#X obj 157 117 - 2;
#X obj 182 117 + 0;
#X obj 207 117 - 1;
#X obj 99 269 list trim;
#X obj 99 299 route 0 1;
#X obj 99 349 -;
#X obj 99 239 list prepend 0;
#X obj 180 213 r \$2-faderMode;
#X obj 99 329 swap 1;
#X connect 0 0 3 0;
#X connect 1 0 2 0;
#X connect 2 0 14 0;
#X connect 3 0 1 0;
#X connect 4 0 5 0;
#X connect 5 0 8 0;
#X connect 5 0 9 0;
#X connect 5 0 10 0;
#X connect 7 0 0 0;
#X connect 8 0 0 1;
#X connect 9 0 3 1;
#X connect 10 0 1 1;
#X connect 11 0 12 0;
#X connect 12 0 16 0;
#X connect 12 1 6 0;
#X connect 13 0 6 0;
#X connect 14 0 11 0;
#X connect 15 0 14 1;
#X connect 16 0 13 0;
#X connect 16 1 13 1;
