#N canvas 569 70 737 348 10;
#X obj 53 16 loadbang;
#X obj 118 270 int;
#X obj 208 270 int;
#X obj 298 270 int;
#X obj 388 270 int;
#X obj 118 240 * 1;
#X obj 208 240 * 1;
#X obj 298 240 * 1;
#X text 570 70 Arg 2 = Starting channel;
#X obj 118 5 r \$1-lamp;
#X text 570 50 Arg 1 = Lamp index;
#X obj 118 210 f;
#X obj 208 210 f;
#X obj 298 210 f;
#X obj 388 173 r \$1-fader;
#X obj 388 193 t b f;
#X msg 53 39 128;
#X obj 568 270 int;
#X obj 568 293 dmxSend2 \$2 7;
#X floatatom 578 240 5 0 0 0 - - -;
#X obj 208 293 dmxSend2 \$2 2;
#X obj 298 293 dmxSend2 \$2 3;
#X obj 388 293 dmxSend2 \$2 4;
#X obj 478 293 dmxSend2 \$2 6;
#X obj 118 293 dmxSend2 \$2 1;
#X floatatom 488 239 5 0 0 0 - - -;
#X obj 415 223 f;
#X obj 118 173 int;
#X obj 118 111 line;
#X obj 118 131 max 0;
#X obj 118 151 min 255;
#X obj 208 173 int;
#X obj 208 111 line;
#X obj 208 131 max 0;
#X obj 208 151 min 255;
#X obj 298 173 int;
#X obj 298 111 line;
#X obj 298 131 max 0;
#X obj 298 151 min 255;
#X obj 118 35 unpack f f f f f f f;
#X obj 118 76 pack f f;
#X obj 208 76 pack f f;
#X obj 298 76 pack f f;
#X obj 464 178 loadbang;
#X msg 464 202 255;
#X connect 0 0 16 0;
#X connect 1 0 24 0;
#X connect 2 0 20 0;
#X connect 3 0 21 0;
#X connect 4 0 22 0;
#X connect 5 0 1 0;
#X connect 6 0 2 0;
#X connect 7 0 3 0;
#X connect 9 0 39 0;
#X connect 11 0 5 0;
#X connect 12 0 6 0;
#X connect 13 0 7 0;
#X connect 14 0 15 0;
#X connect 15 0 11 0;
#X connect 15 0 12 0;
#X connect 15 0 13 0;
#X connect 15 1 26 0;
#X connect 16 0 24 0;
#X connect 17 0 18 0;
#X connect 19 0 17 0;
#X connect 25 0 23 0;
#X connect 26 0 7 1;
#X connect 26 0 6 1;
#X connect 26 0 5 1;
#X connect 27 0 11 0;
#X connect 28 0 29 0;
#X connect 29 0 30 0;
#X connect 30 0 27 0;
#X connect 31 0 12 0;
#X connect 32 0 33 0;
#X connect 33 0 34 0;
#X connect 34 0 31 0;
#X connect 35 0 13 0;
#X connect 36 0 37 0;
#X connect 37 0 38 0;
#X connect 38 0 35 0;
#X connect 39 0 40 0;
#X connect 39 1 40 1;
#X connect 39 2 41 0;
#X connect 39 3 41 1;
#X connect 39 4 42 0;
#X connect 39 5 42 1;
#X connect 40 0 28 0;
#X connect 41 0 32 0;
#X connect 42 0 36 0;
#X connect 43 0 44 0;
#X connect 44 0 4 0;
#X connect 44 0 23 0;
#X connect 44 0 18 0;
