#N canvas 116 383 807 390 10;
#X obj 38 310 int;
#X obj 128 310 int;
#X obj 218 310 int;
#X obj 38 280 * 1;
#X obj 128 280 * 1;
#X obj 218 280 * 1;
#X obj 38 15 r \$1-lamp;
#X obj 38 250 f;
#X obj 128 250 f;
#X obj 218 250 f;
#X obj 308 213 r \$1-fader;
#X obj 308 233 t b f;
#X msg 398 123 128;
#X obj 335 263 f;
#X obj 38 121 line;
#X obj 38 141 max 0;
#X obj 38 161 min 255;
#X obj 128 121 line;
#X obj 128 141 max 0;
#X obj 128 161 min 255;
#X obj 218 121 line;
#X obj 218 141 max 0;
#X obj 218 161 min 255;
#X obj 38 45 unpack f f f f f f f;
#X obj 38 86 pack f f;
#X obj 128 86 pack f f;
#X obj 218 86 pack f f;
#X obj 398 75 r DMX-init;
#X text 593 64 1 - 0-127 - Blackout;
#X text 593 114 2 - 0-255 - Red 0-100%;
#X text 593 144 3 - 0-255 - Green 0-100%;
#X text 593 174 4 - 0-255 - Blue 0-100%;
#X text 593 14 DMX CHANNEL SUMMARY;
#X text 593 204 5 - 0-10 - No function;
#X text 593 314 6 - 0-255 - Strobe speed;
#X obj 445 178 dmxSend2 \$2 5;
#X msg 445 123 0;
#X obj 398 155 dmxSend2 \$2 1;
#X obj 218 333 dmxSend2 \$2 4;
#X obj 485 202 dmxSend2 \$2 6;
#X obj 38 333 dmxSend2 \$2 2;
#X obj 128 333 dmxSend2 \$2 3;
#X obj 398 98 t b b;
#X msg 487 122 -100;
#X text 593 29 (for 6-channel lamps);
#X text 605 224 - 11-85 - Strobe mode;
#X text 605 244 - 86-160 - Auto mode;
#X text 605 264 - 161-235 - Auto mode;
#X text 605 284 - 236-255 - Sound mode;
#X text 606 84 - 128-255 - DMX mode;
#X text 401 14 \$1 = Lamp index;
#X text 401 34 \$2 = Starting channel;
#X text 246 310 Ensure we're only sending ints;
#X text 307 332 Actually send the values to the DMX interface;
#X connect 0 0 40 0;
#X connect 1 0 41 0;
#X connect 2 0 38 0;
#X connect 3 0 0 0;
#X connect 4 0 1 0;
#X connect 5 0 2 0;
#X connect 6 0 23 0;
#X connect 7 0 3 0;
#X connect 8 0 4 0;
#X connect 9 0 5 0;
#X connect 10 0 11 0;
#X connect 11 0 7 0;
#X connect 11 0 8 0;
#X connect 11 0 9 0;
#X connect 11 1 13 0;
#X connect 12 0 37 0;
#X connect 13 0 5 1;
#X connect 13 0 4 1;
#X connect 13 0 3 1;
#X connect 14 0 15 0;
#X connect 15 0 16 0;
#X connect 16 0 7 0;
#X connect 17 0 18 0;
#X connect 18 0 19 0;
#X connect 19 0 8 0;
#X connect 20 0 21 0;
#X connect 21 0 22 0;
#X connect 22 0 9 0;
#X connect 23 0 24 0;
#X connect 23 1 24 1;
#X connect 23 2 25 0;
#X connect 23 3 25 1;
#X connect 23 4 26 0;
#X connect 23 5 26 1;
#X connect 24 0 14 0;
#X connect 25 0 17 0;
#X connect 26 0 20 0;
#X connect 27 0 42 0;
#X connect 36 0 35 0;
#X connect 36 0 39 0;
#X connect 42 0 12 0;
#X connect 42 0 36 0;
#X connect 42 1 43 0;
#X connect 43 0 37 0;
#X connect 43 0 35 0;
#X connect 43 0 39 0;
