#N canvas 148 94 527 275 10;
#X obj 48 209 spigot;
#X obj 96 153 sel 1;
#X msg 96 177 1;
#X obj 96 76 t a b;
#X obj 96 102 u_listdrip;
#X msg 133 178 0;
#X obj 96 51 r \$1-list;
#X obj 48 31 r \$1-msgs;
#X obj 48 239 s \$2-lamp;
#X obj 96 132 == \$2;
#X text 147 128 If the lamp with an index of \$2 is in this DMX bus
\, open the spigot and let the messages through. Keep it closed if
it's not.;
#X connect 0 0 8 0;
#X connect 1 0 2 0;
#X connect 2 0 0 1;
#X connect 3 0 4 0;
#X connect 3 1 5 0;
#X connect 4 0 9 0;
#X connect 5 0 0 1;
#X connect 6 0 3 0;
#X connect 7 0 0 0;
#X connect 9 0 1 0;
