#N canvas 163 605 644 248 10;
#X obj 18 16 loadbang;
#X obj 198 190 int;
#X obj 288 190 int;
#X obj 378 190 int;
#X obj 198 160 * 1;
#X obj 288 160 * 1;
#X obj 378 160 * 1;
#X text 478 67 Arg 2 = Starting channel;
#X obj 198 45 r \$1-lamp;
#X text 478 47 Arg 1 = Lamp index;
#X obj 198 120 f;
#X obj 288 120 f;
#X obj 378 120 f;
#X obj 393 45 r \$1-fader;
#X obj 393 65 t b f;
#X obj 198 75 unpack f f f f;
#X msg 18 45 128;
#X obj 466 190 dmxSend2 \$2 6;
#X obj 32 156 print dmxLamp-\$1-\$2;
#X obj 18 126 dmxSend2 \$2 1;
#X obj 198 213 dmxSend2 \$2 2;
#X obj 288 213 dmxSend2 \$2 3;
#X obj 378 213 dmxSend2 \$2 4;
#X obj 53 76 dmxSend2 \$2 5;
#X msg 53 45 0;
#X obj 466 166 int;
#X obj 501 159 print shutter;
#X floatatom 476 125 5 0 0 0 - - -;
#X obj 524 136 change;
#X connect 0 0 16 0;
#X connect 0 0 24 0;
#X connect 1 0 20 0;
#X connect 2 0 21 0;
#X connect 3 0 22 0;
#X connect 4 0 1 0;
#X connect 5 0 2 0;
#X connect 6 0 3 0;
#X connect 8 0 15 0;
#X connect 10 0 4 0;
#X connect 11 0 5 0;
#X connect 12 0 6 0;
#X connect 13 0 14 0;
#X connect 14 0 10 0;
#X connect 14 0 11 0;
#X connect 14 0 12 0;
#X connect 14 1 6 1;
#X connect 14 1 5 1;
#X connect 14 1 4 1;
#X connect 15 0 10 0;
#X connect 15 1 11 0;
#X connect 15 2 12 0;
#X connect 15 3 25 0;
#X connect 16 0 19 0;
#X connect 24 0 23 0;
#X connect 25 0 17 0;
#X connect 25 0 28 0;
#X connect 27 0 25 0;
#X connect 28 0 26 0;
