#N canvas 113 636 753 399 10;
#X obj 38 280 int;
#X obj 128 280 int;
#X obj 218 280 int;
#X obj 38 250 * 1;
#X obj 128 250 * 1;
#X obj 218 250 * 1;
#X text 288 53 Arg 2 = Starting channel;
#X obj 38 15 r \$1-lamp;
#X text 288 33 Arg 1 = Lamp index;
#X obj 38 220 f;
#X obj 128 220 f;
#X obj 218 220 f;
#X obj 308 183 r \$1-fader;
#X obj 308 203 t b f;
#X msg 380 201 128;
#X obj 335 233 f;
#X obj 38 183 int;
#X obj 38 121 line;
#X obj 38 141 max 0;
#X obj 38 161 min 255;
#X obj 128 183 int;
#X obj 128 121 line;
#X obj 128 141 max 0;
#X obj 128 161 min 255;
#X obj 218 183 int;
#X obj 218 121 line;
#X obj 218 141 max 0;
#X obj 218 161 min 255;
#X obj 38 45 unpack f f f f f f f;
#X obj 38 86 pack f f;
#X obj 128 86 pack f f;
#X obj 218 86 pack f f;
#X obj 380 153 r DMX-init;
#X text 573 64 1 - 0-127 - Blackout;
#X text 573 114 2 - 0-255 - Red 0-100%;
#X text 573 144 3 - 0-255 - Green 0-100%;
#X text 573 174 4 - 0-255 - Blue 0-100%;
#X text 573 224 5 - 11-85 - Strobe mode;
#X text 573 244 5 - 86-160 - Auto mode;
#X text 573 264 5 - 161-235 - Auto mode;
#X text 573 284 5 - 236-255 - Sound mode;
#X text 573 34 DMX CHANNEL SUMMARY;
#X text 573 84 1 - 128-255 - DMX mode;
#X text 573 204 5 - 0-10 - No function;
#X text 573 314 6 - 0-255 - Strobe speed;
#X obj 427 256 dmxSend2 \$2 5;
#X msg 427 201 0;
#X obj 400 117 bng 15 250 50 0 empty empty empty 17 7 0 10 -262144
-1 -1;
#X obj 380 233 dmxSend2 \$2 1;
#X obj 218 303 dmxSend2 \$2 4;
#X obj 467 280 dmxSend2 \$2 6;
#X obj 38 303 dmxSend2 \$2 2;
#X obj 128 303 dmxSend2 \$2 3;
#X obj 380 176 t b b;
#X msg 469 200 -100;
#X connect 0 0 51 0;
#X connect 1 0 52 0;
#X connect 2 0 49 0;
#X connect 3 0 0 0;
#X connect 4 0 1 0;
#X connect 5 0 2 0;
#X connect 7 0 28 0;
#X connect 9 0 3 0;
#X connect 10 0 4 0;
#X connect 11 0 5 0;
#X connect 12 0 13 0;
#X connect 13 0 9 0;
#X connect 13 0 10 0;
#X connect 13 0 11 0;
#X connect 13 1 15 0;
#X connect 14 0 48 0;
#X connect 15 0 5 1;
#X connect 15 0 4 1;
#X connect 15 0 3 1;
#X connect 16 0 9 0;
#X connect 17 0 18 0;
#X connect 18 0 19 0;
#X connect 19 0 16 0;
#X connect 20 0 10 0;
#X connect 21 0 22 0;
#X connect 22 0 23 0;
#X connect 23 0 20 0;
#X connect 24 0 11 0;
#X connect 25 0 26 0;
#X connect 26 0 27 0;
#X connect 27 0 24 0;
#X connect 28 0 29 0;
#X connect 28 1 29 1;
#X connect 28 2 30 0;
#X connect 28 3 30 1;
#X connect 28 4 31 0;
#X connect 28 5 31 1;
#X connect 29 0 17 0;
#X connect 30 0 21 0;
#X connect 31 0 25 0;
#X connect 32 0 53 0;
#X connect 46 0 45 0;
#X connect 46 0 50 0;
#X connect 47 0 53 0;
#X connect 53 0 14 0;
#X connect 53 0 46 0;
#X connect 53 1 54 0;
#X connect 54 0 48 0;
#X connect 54 0 45 0;
#X connect 54 0 50 0;
