#N canvas 29 232 510 597 10;
#X obj 58 26 inlet;
#X obj 58 109 spigot;
#X obj 58 146 s \$0-xy;
#X obj 304 205 dmxPanFaderChan 7 \$0;
#X obj 304 85 dmxPanFaderChan 1 \$0;
#X obj 304 265 dmxPanFaderChan 10 \$0;
#X obj 304 105 dmxPanFaderChan 2 \$0;
#X obj 304 125 dmxPanFaderChan 3 \$0;
#X obj 304 145 dmxPanFaderChan 4 \$0;
#X obj 304 165 dmxPanFaderChan 5 \$0;
#X obj 304 185 dmxPanFaderChan 6 \$0;
#X obj 304 225 dmxPanFaderChan 8 \$0;
#X obj 304 245 dmxPanFaderChan 9 \$0;
#X obj 304 285 dmxPanFaderChan 11 \$0;
#X obj 304 305 dmxPanFaderChan 12 \$0;
#X obj 58 69 spigot;
#X obj 128 26 inlet song;
#X obj 200 26 inlet synth;
#X connect 0 0 15 0;
#X connect 1 0 2 0;
#X connect 15 0 1 0;
#X connect 16 0 15 1;
#X connect 17 0 1 1;
