#N canvas 799 131 439 450 10;
#X obj 99 41 r \$2-xy;
#X obj 99 73 unpack f f;
#X obj 220 239 max;
#X obj 220 269 min;
#X obj 235 163 sel 0 1;
#X obj 235 215 unpack f f;
#X msg 280 186 0 1;
#X msg 235 188 -1 0;
#X obj 220 299 abs;
#X obj 235 81 loadbang;
#X obj 235 111 \$1;
#X obj 99 380 s \$1-fader;
#X obj 235 136 < 7;
#X obj 99 107 dmxPanFaderChanX \$1;
#X obj 99 354 *;
#X connect 0 0 1 0;
#X connect 1 0 13 0;
#X connect 1 1 2 0;
#X connect 2 0 3 0;
#X connect 3 0 8 0;
#X connect 4 0 7 0;
#X connect 4 1 6 0;
#X connect 5 0 2 1;
#X connect 5 1 3 1;
#X connect 6 0 5 0;
#X connect 7 0 5 0;
#X connect 8 0 14 1;
#X connect 9 0 10 0;
#X connect 10 0 12 0;
#X connect 12 0 4 0;
#X connect 13 0 14 0;
#X connect 14 0 11 0;
