#N canvas 378 117 544 465 10;
#X obj 119 219 max 0;
#X obj 119 259 - 1;
#X obj 119 279 abs;
#X obj 119 239 min 2;
#X obj 205 41 loadbang;
#X obj 205 63 \$1;
#X obj 197 187 - 2;
#X obj 222 187 + 0;
#X obj 247 187 - 1;
#X obj 119 30 inlet;
#X obj 119 429 outlet;
#X obj 119 51 + 1;
#X obj 119 71 / 2;
#X obj 119 116 list prepend;
#X obj 119 136 list trim;
#X obj 119 156 route 0 1;
#X obj 119 197 -;
#X obj 205 87 < 7;
#X obj 119 92 * 6;
#X obj 119 329 -;
#X obj 119 309 swap 1;
#X obj 119 177 swap 12;
#X connect 0 0 3 0;
#X connect 1 0 2 0;
#X connect 2 0 20 0;
#X connect 3 0 1 0;
#X connect 4 0 5 0;
#X connect 5 0 6 0;
#X connect 5 0 7 0;
#X connect 5 0 8 0;
#X connect 5 0 17 0;
#X connect 6 0 0 1;
#X connect 7 0 3 1;
#X connect 8 0 1 1;
#X connect 9 0 11 0;
#X connect 11 0 12 0;
#X connect 12 0 18 0;
#X connect 13 0 14 0;
#X connect 14 0 15 0;
#X connect 15 0 21 0;
#X connect 15 1 0 0;
#X connect 16 0 0 0;
#X connect 17 0 13 1;
#X connect 18 0 13 0;
#X connect 19 0 10 0;
#X connect 20 0 19 0;
#X connect 20 1 19 1;
#X connect 21 0 16 0;
#X connect 21 1 16 1;
