#N canvas 670 614 345 212 10;
#X obj 45 8 inlet;
#X obj 45 176 s dmx-control;
#X obj 139 23 loadbang;
#X obj 139 46 \$1;
#X obj 139 70 + \$2;
#X obj 45 142 pack 0 0;
#X obj 139 99 - 1;
#X text 180 46 Starting channel;
#X text 180 70 Channel index (1-based);
#X obj 45 110 change;
#X obj 72 59 sel -100;
#X msg 72 83 -1;
#X obj 45 32 t f f;
#X connect 0 0 12 0;
#X connect 2 0 3 0;
#X connect 3 0 4 0;
#X connect 4 0 6 0;
#X connect 5 0 1 0;
#X connect 6 0 5 1;
#X connect 9 0 5 0;
#X connect 10 0 11 0;
#X connect 11 0 9 0;
#X connect 12 0 9 0;
#X connect 12 1 10 0;
